<svg width="39" height="36" viewBox="0 0 39 36" fill="none" xmlns="http://www.w3.org/2000/svg">
<path fill-rule="evenodd" clip-rule="evenodd" d="M4.90894 18.8569C5.59929 18.8569 6.15894 19.4166 6.15894 20.1069V32.5455C6.15894 32.5998 6.18045 32.6518 6.21887 32.6902C6.25715 32.7285 6.30913 32.75 6.36348 32.75H32.5454C32.5997 32.75 32.6517 32.7285 32.69 32.6902C32.7284 32.6518 32.7499 32.5998 32.7499 32.5455V20.1072C32.7499 19.4169 33.3095 18.8572 33.9999 18.8572C34.6903 18.8572 35.2499 19.4169 35.2499 20.1072V32.5455C35.2499 33.2628 34.965 33.9507 34.4578 34.4579C33.9505 34.9652 33.2625 35.25 32.5454 35.25H6.36348C5.64629 35.25 4.95833 34.9652 4.45104 34.4579C3.9439 33.9507 3.65894 33.2629 3.65894 32.5455V20.1069C3.65894 19.4166 4.21858 18.8569 4.90894 18.8569Z" fill="#505050"/>
<path fill-rule="evenodd" clip-rule="evenodd" d="M5.88312 3.29123C5.91862 3.26447 5.96186 3.25 6.00628 3.25ZM4.37763 1.29536C4.84682 0.94146 5.41854 0.75 6.00628 0.75H32.9029C33.4906 0.75 34.0623 0.941396 34.5315 1.29531C35.0007 1.64922 35.342 2.1464 35.5035 2.71167L38.1111 11.8384C38.2189 12.2155 38.1434 12.6214 37.9071 12.9345C37.6709 13.2477 37.3014 13.4318 36.9092 13.4318H2.00001C1.60777 13.4318 1.23828 13.2477 1.00207 12.9345C0.765871 12.6214 0.69035 12.2155 0.798106 11.8384L3.40579 2.71155L3.40579 2.71153C3.56726 2.14643 3.90841 1.64931 4.37758 1.29539L4.37763 1.29536ZM6.00628 3.25H32.9029ZM32.9029 3.25C32.9474 3.25 32.9906 3.2645 33.026 3.29119ZM33.0996 3.39823C33.0874 3.35566 33.0617 3.3181 33.0262 3.29131L33.026 3.29119M5.8096 3.39835C5.80959 3.39836 5.80959 3.39837 5.80959 3.39837L3.65717 10.9318H35.252L33.0996 3.39836L33.0996 3.39823M5.8096 3.39835C5.82181 3.35564 5.8476 3.31804 5.88308 3.29126Z" fill="#505050"/>
<path fill-rule="evenodd" clip-rule="evenodd" d="M2 10.9316C2.69036 10.9316 3.25 11.4913 3.25 12.1816V15.0907C3.25 16.3023 3.7313 17.4643 4.58799 18.3209C5.44469 19.1776 6.60664 19.6589 7.8182 19.6589C9.02976 19.6589 10.1917 19.1776 11.0484 18.321C11.9051 17.4643 12.3864 16.3023 12.3864 15.0907V12.1816C12.3864 11.4913 12.946 10.9316 13.6364 10.9316C14.3268 10.9316 14.8864 11.4913 14.8864 12.1816V15.0907C14.8864 16.9654 14.1417 18.7632 12.8162 20.0887C11.4907 21.4142 9.6928 22.1589 7.8182 22.1589C5.94358 22.1589 4.14577 21.4142 2.82023 20.0887C1.49468 18.7632 0.75 16.9654 0.75 15.0907V12.1816C0.75 11.4913 1.30964 10.9316 2 10.9316Z" fill="#505050"/>
<path fill-rule="evenodd" clip-rule="evenodd" d="M13.6367 10.9316C14.327 10.9316 14.8867 11.4913 14.8867 12.1816V15.0907C14.8867 16.3023 15.368 17.4642 16.2246 18.3209C16.2246 18.3209 16.2247 18.3209 16.2247 18.321M16.2247 18.321C17.0815 19.1777 18.2434 19.6589 19.4549 19.6589C20.6665 19.6589 21.8284 19.1776 22.6851 18.321C23.5418 17.4643 24.0231 16.3023 24.0231 15.0907V12.1816C24.0231 11.4913 24.5827 10.9316 25.2731 10.9316C25.9634 10.9316 26.5231 11.4913 26.5231 12.1816V15.0907C26.5231 16.9654 25.7784 18.7632 24.4529 20.0887C23.1273 21.4142 21.3295 22.1589 19.4549 22.1589C17.5802 22.1589 15.7825 21.4142 14.4569 20.0888L14.4569 20.0887C13.1314 18.7632 12.3867 16.9654 12.3867 15.0907V12.1816C12.3867 11.4913 12.9463 10.9316 13.6367 10.9316" fill="#505050"/>
<path fill-rule="evenodd" clip-rule="evenodd" d="M25.2725 10.9316C25.9628 10.9316 26.5225 11.4913 26.5225 12.1816V15.0907C26.5225 16.3024 27.0037 17.4643 27.8604 18.3209L27.8605 18.321C28.7172 19.1776 29.8791 19.6589 31.0907 19.6589C32.3022 19.6589 33.4641 19.1776 34.3208 18.321L34.3208 18.3209C35.1776 17.4643 35.6589 16.3023 35.6589 15.0907V12.1816C35.6589 11.4913 36.2185 10.9316 36.9089 10.9316C37.5992 10.9316 38.1589 11.4913 38.1589 12.1816V15.0907C38.1589 16.9654 37.4142 18.7632 36.0885 20.0888C34.763 21.4143 32.9652 22.1589 31.0907 22.1589C29.2161 22.1589 27.4183 21.4143 26.0928 20.0888C26.0927 20.0888 26.0927 20.0887 26.0927 20.0887" fill="#505050"/>
</svg>
