<svg width="26" height="22" viewBox="0 0 26 22" fill="none" xmlns="http://www.w3.org/2000/svg">
<path fill-rule="evenodd" clip-rule="evenodd" d="M5.5 8C5.5 7.44772 5.94772 7 6.5 7H19.5C20.0523 7 20.5 7.44772 20.5 8C20.5 8.55229 20.0523 9 19.5 9H6.5C5.94772 9 5.5 8.55229 5.5 8Z" fill="#333333"/>
<path fill-rule="evenodd" clip-rule="evenodd" d="M5.5 12C5.5 11.4477 5.94772 11 6.5 11H19.5C20.0523 11 20.5 11.4477 20.5 12C20.5 12.5523 20.0523 13 19.5 13H6.5C5.94772 13 5.5 12.5523 5.5 12Z" fill="#333333"/>
<path fill-rule="evenodd" clip-rule="evenodd" d="M0.585787 0.585787C0.960859 0.210714 1.46957 0 2 0H24C24.5304 0 25.0391 0.210714 25.4142 0.585787C25.7893 0.960861 26 1.46957 26 2V21C26 21.3466 25.8205 21.6684 25.5257 21.8507C25.2309 22.0329 24.8628 22.0494 24.5528 21.8944L21 20.118L17.4472 21.8944C17.1657 22.0352 16.8343 22.0352 16.5528 21.8944L13 20.118L9.44721 21.8944C9.16569 22.0352 8.83431 22.0352 8.55279 21.8944L5 20.118L1.44721 21.8944C1.13723 22.0494 0.769085 22.0329 0.474269 21.8507C0.179452 21.6684 0 21.3466 0 21V2C0 1.46957 0.210714 0.960859 0.585787 0.585787ZM24 2H2V19.382L4.55279 18.1056C4.83431 17.9648 5.16569 17.9648 5.44721 18.1056L9 19.882L12.5528 18.1056C12.8343 17.9648 13.1657 17.9648 13.4472 18.1056L17 19.882L20.5528 18.1056C20.8343 17.9648 21.1657 17.9648 21.4472 18.1056L24 19.382V2Z" fill="#333333"/>
</svg>
