<svg width="18" height="20" viewBox="0 0 18 20" fill="none" xmlns="http://www.w3.org/2000/svg">
<path fill-rule="evenodd" clip-rule="evenodd" d="M4.5 0.75C4.77614 0.75 5 0.973858 5 1.25V2.25H13V1.25C13 0.973858 13.2239 0.75 13.5 0.75C13.7761 0.75 14 0.973858 14 1.25V2.25H16.5C17.1903 2.25 17.75 2.80964 17.75 3.5V18.5C17.75 19.1903 17.1903 19.75 16.5 19.75H1.5C0.809643 19.75 0.25 19.1903 0.25 18.5V3.5C0.25 2.80965 0.809648 2.25 1.5 2.25H4V1.25C4 0.973858 4.22386 0.75 4.5 0.75ZM4 3.25H1.5C1.36193 3.25 1.25 3.36193 1.25 3.5V6.75H16.75V3.5C16.75 3.36194 16.6381 3.25 16.5 3.25H14V4.25C14 4.52614 13.7761 4.75 13.5 4.75C13.2239 4.75 13 4.52614 13 4.25V3.25H5V4.25C5 4.52614 4.77614 4.75 4.5 4.75C4.22386 4.75 4 4.52614 4 4.25V3.25ZM16.75 7.75H1.25V18.5C1.25 18.6381 1.36194 18.75 1.5 18.75H16.5C16.6381 18.75 16.75 18.6381 16.75 18.5V7.75ZM12.2236 10.5525C12.393 10.6372 12.5 10.8103 12.5 10.9997V15.8747C12.5 16.1508 12.2761 16.3747 12 16.3747C11.7239 16.3747 11.5 16.1508 11.5 15.8747V11.9997L10.8 12.5247C10.5791 12.6904 10.2657 12.6456 10.1 12.4247C9.93431 12.2038 9.97909 11.8904 10.2 11.7247L11.7 10.5997C11.8515 10.4861 12.0542 10.4678 12.2236 10.5525ZM5.125 10.9997C5.125 10.7236 5.34886 10.4997 5.625 10.4997H8.25C8.4422 10.4997 8.61739 10.6099 8.70065 10.7831C8.78391 10.9563 8.7605 11.162 8.64043 11.312L7.62791 12.5777C7.64971 12.5884 7.67133 12.5994 7.69277 12.6109C7.69282 12.6109 7.69271 12.6108 7.69277 12.6109C7.98277 12.7658 8.23001 12.9899 8.41272 13.2631C8.59528 13.5364 8.70797 13.8508 8.74027 14.178C8.74027 14.1781 8.74026 14.178 8.74027 14.178C8.77268 14.5055 8.72372 14.8357 8.59801 15.1395C8.47226 15.4434 8.27348 15.7115 8.01941 15.9201C8.01937 15.9202 8.01945 15.9201 8.01941 15.9201C7.7653 16.1289 7.46371 16.2717 7.14121 16.336C7.14114 16.336 7.14128 16.336 7.14121 16.336C6.81864 16.4004 6.48525 16.3842 6.17058 16.2889C5.85578 16.1936 5.56924 16.0221 5.33664 15.7898C5.14127 15.5946 5.14108 15.278 5.33623 15.0827C5.53138 14.8873 5.84797 14.8871 6.04334 15.0822C6.15969 15.1985 6.30285 15.2842 6.4601 15.3317C6.61748 15.3794 6.78429 15.3876 6.94539 15.3554C7.10661 15.3233 7.25755 15.2518 7.38459 15.1475C7.51166 15.0431 7.61116 14.909 7.67399 14.7571C7.73688 14.6051 7.76132 14.4401 7.74513 14.2766C7.72901 14.1131 7.6728 13.9558 7.58148 13.8191C7.49002 13.6823 7.36632 13.5702 7.22139 13.4928C7.07649 13.4153 6.91446 13.3747 6.75 13.3747C6.5578 13.3747 6.38261 13.2645 6.29935 13.0913C6.21609 12.9181 6.2395 12.7124 6.35957 12.5624L7.20969 11.4997H5.625C5.34886 11.4997 5.125 11.2758 5.125 10.9997Z" fill="#505050"/>
</svg>
