<svg width="35" height="33" viewBox="0 0 35 33" fill="none" xmlns="http://www.w3.org/2000/svg">
<path fill-rule="evenodd" clip-rule="evenodd" d="M0.125 1.43724C0.125 0.850581 0.600581 0.375 1.18724 0.375H3.88361C4.41223 0.375 4.92409 0.56053 5.32994 0.899245C5.73579 1.23796 6.00989 1.70837 6.10446 2.22847L5.05935 2.41849L0.125 1.43724ZM0.125 1.43724C0.125 2.0239 0.600581 2.49948 1.18724 2.49948L0.125 1.43724ZM3.88361 2.49948C3.9147 2.49948 3.94481 2.5104 3.96868 2.53032L3.88361 2.49948ZM3.96868 2.53032C3.99256 2.55024 4.00868 2.57791 4.01424 2.60851L3.96868 2.53032ZM6.10446 2.22847L10.0932 24.1664C10.0987 24.197 10.1149 24.2247 10.1387 24.2446C10.1626 24.2645 10.1927 24.2754 10.2238 24.2754H28.6727C29.2594 24.2754 29.735 24.751 29.735 25.3377C29.735 25.9243 29.2594 26.3999 28.6727 26.3999H10.2238C9.69519 26.3999 9.18333 26.2144 8.77747 25.8757C8.37162 25.5369 8.09751 25.0665 8.00295 24.5464L4.01424 2.60851" fill="#333333"/>
<path d="M5.05935 2.41849L0.125 1.43724L1.18724 2.49948H3.88361C3.9147 2.49948 3.94481 2.5104 3.96868 2.53032C3.99256 2.55024 4.00868 2.57791 4.01424 2.60851L5.05935 2.41849Z" fill="#333333"/>
<path fill-rule="evenodd" clip-rule="evenodd" d="M10.7474 26.3999C9.68409 26.3999 8.8221 27.2619 8.8221 28.3252C8.8221 29.3885 9.68409 30.2505 10.7474 30.2505C11.8107 30.2505 12.6727 29.3885 12.6727 28.3252C12.6727 27.2619 11.8107 26.3999 10.7474 26.3999ZM6.69761 28.3252C6.69761 26.0886 8.51077 24.2754 10.7474 24.2754C12.984 24.2754 14.7972 26.0886 14.7972 28.3252C14.7972 30.5618 12.984 32.375 10.7474 32.375C8.51077 32.375 6.69761 30.5618 6.69761 28.3252ZM28.6727 26.3999C27.6094 26.3999 26.7474 27.2619 26.7474 28.3252C26.7474 29.3885 27.6094 30.2505 28.6727 30.2505C29.736 30.2505 30.598 29.3885 30.598 28.3252C30.598 27.2619 29.736 26.3999 28.6727 26.3999ZM24.6229 28.3252C24.6229 26.0886 26.4361 24.2754 28.6727 24.2754C30.9094 24.2754 32.7225 26.0886 32.7225 28.3252C32.7225 30.5618 30.9094 32.375 28.6727 32.375C26.4361 32.375 24.6229 30.5618 24.6229 28.3252Z" fill="#333333"/>
<path fill-rule="evenodd" clip-rule="evenodd" d="M4.90508 7.41234C4.90508 6.82569 5.38066 6.3501 5.96732 6.3501H32.0209C32.3515 6.3501 32.6781 6.42273 32.9776 6.56286C33.2771 6.70299 33.5421 6.90719 33.7539 7.16103C33.9658 7.41486 34.1193 7.71214 34.2036 8.03185C34.2879 8.35155 34.3009 8.68587 34.2418 9.01116L32.2863 19.7663C32.1917 20.2864 31.9176 20.7569 31.5118 21.0956C31.1059 21.4343 30.594 21.6198 30.0654 21.6198H8.35737C7.77071 21.6198 7.29513 21.1442 7.29513 20.5576C7.29513 19.9709 7.77071 19.4953 8.35737 19.4953H30.0654C30.0965 19.4953 30.1266 19.4844 30.1505 19.4645C30.1744 19.4446 30.1905 19.4169 30.1961 19.3863L32.1516 8.63112C32.155 8.61198 32.1543 8.59231 32.1493 8.57351C32.1444 8.55471 32.1353 8.53722 32.1229 8.52229C32.1104 8.50735 32.0948 8.49534 32.0772 8.4871C32.0596 8.47886 32.0404 8.47459 32.0209 8.47459H5.96732C5.38066 8.47459 4.90508 7.999 4.90508 7.41234Z" fill="#333333"/>
</svg>
