<svg width="21" height="16" viewBox="0 0 21 16" fill="none" xmlns="http://www.w3.org/2000/svg">
<path fill-rule="evenodd" clip-rule="evenodd" d="M1.37865 0.878674C1.94126 0.316057 2.70432 0 3.49996 0H17.5C18.2956 0 19.0586 0.316077 19.6212 0.878664C20.1839 1.44128 20.5 2.20437 20.5 3V3.98744C20.5001 3.99578 20.5001 4.00411 20.5 4.01243V13C20.5 13.7956 20.1839 14.5587 19.6213 15.1213C19.0586 15.6839 18.2956 16 17.5 16H3.49996C2.70432 16 1.94124 15.684 1.37861 15.1213C0.816029 14.5587 0.499956 13.7956 0.499956 13V4.01238C0.499852 4.00409 0.499852 3.99579 0.499956 3.98748V3C0.499956 2.20437 0.816031 1.44129 1.37865 0.878674ZM2.49996 5.86852V13C2.49996 13.2652 2.6053 13.5195 2.79287 13.7071C2.98038 13.8946 3.23473 14 3.49996 14H17.5C17.7651 14 18.0195 13.8947 18.207 13.7071C18.3946 13.5195 18.5 13.2652 18.5 13V5.86852L12.1649 10.0919C11.672 10.4206 11.0925 10.5963 10.5 10.5963C9.90743 10.5963 9.32818 10.4208 8.83526 10.0921L2.49996 5.86852ZM18.5 3L18.2071 2.29292L17.5 2H4.5L3.23154 2.0367L2.68423 2.42155L2.49996 3C2.49996 2.73478 2.60531 2.48043 2.79284 2.29291C2.98037 2.10537 3.23474 2 3.49996 2H17.5C17.7651 2 18.0195 2.10534 18.2071 2.29292C18.3946 2.48043 18.5 2.73477 18.5 3ZM18.5 3L18.2071 2.29292L17.5 2H4.5L3.23154 2.0367L2.68423 2.42155L2.49996 3L9.94466 8.42795C10.109 8.53759 10.3024 8.5963 10.5 8.5963C10.6975 8.5963 10.8906 8.53781 11.055 8.42812L18.5 3Z" fill="#BDBDBD"/>
</svg>
