<svg width="10" height="10" viewBox="0 0 10 10" fill="none" xmlns="http://www.w3.org/2000/svg">
<path d="M0.1461 0.14903C0.32319 -0.0316124 0.600308 -0.0480344 0.795585 0.0997637L0.851531 0.14903L4.84848 4.22631L8.84544 0.14903C9.02253 -0.0316124 9.29965 -0.0480344 9.49492 0.0997637L9.55087 0.14903C9.72796 0.329672 9.74406 0.612347 9.59917 0.811541L9.55087 0.868609L5.2012 5.30552C5.02411 5.48616 4.74699 5.50258 4.55172 5.35478L4.49577 5.30552L0.1461 0.868609C-0.0487 0.669903 -0.0487 0.347736 0.1461 0.14903Z" fill="#F6412D"/>
<path d="M0.1461 9.85097C0.32319 10.0316 0.600308 10.048 0.795585 9.90024L0.851531 9.85097L4.84848 5.77369L8.84544 9.85097C9.02253 10.0316 9.29965 10.048 9.49492 9.90024L9.55087 9.85097C9.72796 9.67033 9.74406 9.38765 9.59917 9.18846L9.55087 9.13139L5.2012 4.69448C5.02411 4.51384 4.74699 4.49742 4.55172 4.64522L4.49577 4.69448L0.1461 9.13139C-0.0487 9.3301 -0.0487 9.65226 0.1461 9.85097Z" fill="#F6412D"/>
</svg>
