<svg width="18" height="18" viewBox="0 0 18 18" fill="none" xmlns="http://www.w3.org/2000/svg">
<path fill-rule="evenodd" clip-rule="evenodd" d="M0 9C0 4.02944 4.02944 0 9 0C13.9706 0 18 4.02944 18 9C18 13.9706 13.9706 18 9 18C4.02944 18 0 13.9706 0 9ZM9 2C5.134 2 2 5.134 2 9C2 12.866 5.134 16 9 16C12.866 16 16 12.866 16 9C16 5.134 12.866 2 9 2ZM5.62621 5.62622C6.01674 5.2357 6.6499 5.2357 7.04042 5.62623L8.99996 7.58579L10.9595 5.62623C11.35 5.2357 11.9832 5.2357 12.3737 5.62622C12.7642 6.01674 12.7642 6.6499 12.3737 7.04043L10.4142 9.00002L12.3737 10.9596C12.7642 11.3501 12.7642 11.9833 12.3737 12.3738C11.9832 12.7643 11.35 12.7643 10.9595 12.3738L8.99996 10.4142L7.04042 12.3738C6.6499 12.7643 6.01674 12.7643 5.62621 12.3738C5.23568 11.9833 5.23568 11.3501 5.6262 10.9596L7.58575 9.00002L5.6262 7.04043C5.23568 6.6499 5.23568 6.01674 5.62621 5.62622Z" fill="#F6412D"/>
</svg>
