<svg width="20" height="18" viewBox="0 0 20 18" fill="none" xmlns="http://www.w3.org/2000/svg">
<path fill-rule="evenodd" clip-rule="evenodd" d="M13.7929 6.54289C14.1834 6.15237 14.8166 6.15237 15.2071 6.54289L19.7071 11.0429C20.0976 11.4334 20.0976 12.0666 19.7071 12.4571L15.2071 16.9571C14.8166 17.3476 14.1834 17.3476 13.7929 16.9571C13.4024 16.5666 13.4024 15.9334 13.7929 15.5429L17.5858 11.75L13.7929 7.95711C13.4024 7.56658 13.4024 6.93342 13.7929 6.54289Z" fill="#8A8A8A"/>
<path fill-rule="evenodd" clip-rule="evenodd" d="M1.83058 2.08058C3.00269 0.908477 4.59239 0.25 6.25 0.25H14.5C15.0523 0.25 15.5 0.697715 15.5 1.25C15.5 1.80228 15.0523 2.25 14.5 2.25H6.25C5.12283 2.25 4.04183 2.69776 3.2448 3.4948C2.44776 4.29183 2 5.37283 2 6.5C2 7.05808 2.10992 7.61075 2.32352 8.12643C2.53709 8.64207 2.85013 9.11053 3.24479 9.50519C3.63939 9.89979 4.10789 10.2128 4.62355 10.4265C5.1392 10.6401 5.69187 10.75 6.24999 10.75H19C19.5523 10.75 20 11.1977 20 11.75C20 12.3023 19.5523 12.75 19 12.75H6.24999C5.42923 12.75 4.61652 12.5883 3.85827 12.2743C3.10006 11.9602 2.41096 11.4998 1.83059 10.9194C1.25023 10.3391 0.78985 9.65013 0.475743 8.89177C0.161656 8.13345 0 7.32072 0 6.5C0 4.84239 0.658477 3.25269 1.83058 2.08058Z" fill="#8A8A8A"/>
</svg>
