<svg width="30" height="34" viewBox="0 0 30 34" fill="none" xmlns="http://www.w3.org/2000/svg">
<path fill-rule="evenodd" clip-rule="evenodd" d="M22.3643 1.33838C22.2879 0.770821 21.8052 0.333374 21.221 0.333374C20.5838 0.333374 20.0672 0.853973 20.0672 1.49616V2.78174H9.94692V1.49616L9.93638 1.33838C9.85998 0.770821 9.37722 0.333374 8.79307 0.333374C8.15582 0.333374 7.63923 0.853973 7.63923 1.49616V2.81061C2.91092 3.13625 0 6.1999 0 11.143V25.1735C0 30.4787 3.2639 33.6667 8.49376 33.6667H21.5061C26.7422 33.6667 29.9999 30.5321 29.9999 25.2907V11.143C30.0149 6.19814 27.1134 3.13534 22.3748 2.81047V1.49616L22.3643 1.33838ZM20.0672 5.10732V6.59815L20.0777 6.75593C20.1541 7.32349 20.6369 7.76094 21.221 7.76094C21.8583 7.76094 22.3748 7.24034 22.3748 6.59815V5.14169C25.8224 5.42853 27.7033 7.50461 27.6922 11.1394V11.8128H2.30766V11.143C2.30766 7.51046 4.19875 5.42999 7.63923 5.14192V6.59815L7.64977 6.75593C7.72617 7.32349 8.20893 7.76094 8.79307 7.76094C9.43032 7.76094 9.94692 7.24034 9.94692 6.59815V5.10732H20.0672ZM2.30766 14.1384V25.1734C2.30766 29.1778 4.52251 31.3411 8.49374 31.3411H21.5061C25.4909 31.3411 27.6922 29.223 27.6922 25.2907V14.1384H2.30766ZM23.002 19.0305C23.002 18.3883 22.4854 17.8678 21.8481 17.8678L21.6773 17.8784C21.1141 17.9554 20.68 18.4419 20.68 19.0305C20.68 19.6727 21.1966 20.1933 21.8481 20.1933L22.0047 20.1827C22.5679 20.1057 23.002 19.6192 23.002 19.0305ZM15.0213 17.8678C15.6585 17.8678 16.1751 18.3883 16.1751 19.0305C16.1751 19.6192 15.741 20.1057 15.1778 20.1827L15.0213 20.1933C14.3698 20.1933 13.8532 19.6727 13.8532 19.0305C13.8532 18.4419 14.2873 17.9554 14.8505 17.8784L15.0213 17.8678ZM9.33405 19.0305C9.33405 18.3883 8.81746 17.8678 8.18021 17.8678L8.00939 17.8784C7.4462 17.9554 7.01212 18.4419 7.01212 19.0305C7.01212 19.6727 7.52871 20.1933 8.16596 20.1933L8.33678 20.1827C8.89997 20.1057 9.33405 19.6192 9.33405 19.0305ZM21.8481 23.8934C22.4854 23.8934 23.002 24.414 23.002 25.0562C23.002 25.6448 22.5679 26.1313 22.0047 26.2083L21.8481 26.219C21.1966 26.219 20.68 25.6984 20.68 25.0562C20.68 24.4675 21.1141 23.981 21.6773 23.904L21.8481 23.8934ZM16.1751 25.0562C16.1751 24.414 15.6585 23.8934 15.0213 23.8934L14.8505 23.904C14.2873 23.981 13.8532 24.4675 13.8532 25.0562C13.8532 25.6984 14.3698 26.219 15.0213 26.219L15.1778 26.2083C15.741 26.1313 16.1751 25.6448 16.1751 25.0562ZM8.18021 23.8934C8.81746 23.8934 9.33405 24.414 9.33405 25.0562C9.33405 25.6448 8.89997 26.1313 8.33678 26.2083L8.16596 26.219C7.52871 26.219 7.01212 25.6984 7.01212 25.0562C7.01212 24.4675 7.4462 23.981 8.00939 23.904L8.18021 23.8934Z" fill="#505050"/>
</svg>
