<svg width="21" height="19" viewBox="0 0 21 19" fill="none" xmlns="http://www.w3.org/2000/svg">
<path fill-rule="evenodd" clip-rule="evenodd" d="M0.25 3.70455C0.25 1.79666 1.79666 0.25 3.70455 0.25C5.61245 0.25 7.15909 1.79666 7.15909 3.70455C7.15909 5.35488 6.00185 6.73491 4.45458 7.07744L4.4547 10.2842C4.45474 11.3149 4.86419 12.3033 5.59299 13.0322C5.59299 13.0322 5.59298 13.0322 5.59299 13.0322L7.97751 15.4167L7.97752 13.3636C7.97752 12.9494 8.31331 12.6136 8.72752 12.6136C9.14174 12.6136 9.47752 12.9494 9.47752 13.3636L9.47751 17.2273C9.47751 17.6415 9.14172 17.9773 8.72751 17.9773H4.86389C4.44968 17.9773 4.11389 17.6415 4.11389 17.2273C4.11389 16.8131 4.44968 16.4773 4.86389 16.4773H6.91683L4.53233 14.0928C3.52227 13.0827 2.95476 11.7127 2.9547 10.2842L2.95458 7.07746C1.40728 6.73495 0.25 5.3549 0.25 3.70455ZM3.70455 1.75C2.62508 1.75 1.75 2.62508 1.75 3.70455C1.75 4.78401 2.62508 5.65909 3.70455 5.65909C4.78402 5.65909 5.65909 4.78402 5.65909 3.70455C5.65909 2.62508 4.78401 1.75 3.70455 1.75ZM11.0682 1.77271C11.0682 1.3585 11.404 1.02271 11.8182 1.02271H15.6818C16.096 1.02271 16.4318 1.3585 16.4318 1.77271C16.4318 2.18692 16.096 2.52271 15.6818 2.52271H13.6288L16.0133 4.9072C16.0133 4.90721 16.0133 4.90719 16.0133 4.9072C17.0235 5.91731 17.5909 7.28728 17.591 8.71573L17.5912 11.9225C19.1384 12.265 20.2957 13.645 20.2957 15.2954C20.2957 17.2033 18.749 18.75 16.8412 18.75C14.9333 18.75 13.3866 17.2033 13.3866 15.2954C13.3866 13.645 14.5439 12.2651 16.0912 11.9225L16.091 8.71583C16.0909 7.6851 15.6815 6.69667 14.9527 5.9679L12.5682 3.58338V5.63634C12.5682 6.05055 12.2324 6.38634 11.8182 6.38634C11.404 6.38634 11.0682 6.05055 11.0682 5.63634V1.77271ZM16.8412 13.3409C15.7617 13.3409 14.8866 14.216 14.8866 15.2954C14.8866 16.3749 15.7617 17.25 16.8412 17.25C17.9206 17.25 18.7957 16.3749 18.7957 15.2954C18.7957 14.2159 17.9206 13.3409 16.8412 13.3409Z" fill="#333333"/>
</svg>
