<svg width="20" height="21" viewBox="0 0 20 21" fill="none" xmlns="http://www.w3.org/2000/svg">
<path fill-rule="evenodd" clip-rule="evenodd" d="M7.86445 0.890824C8.99081 -0.240649 10.7933 -0.290463 11.951 0.719624L12.1333 0.889624L12.8521 1.60837C13.099 1.85409 13.4228 2.00559 13.7673 2.03962L13.916 2.04695H14.944C16.5478 2.04695 17.8593 3.30112 17.9509 4.882L17.956 5.05895V6.08595C17.956 6.43575 18.0766 6.77203 18.2942 7.03941L18.3933 7.14962L19.1121 7.86842C20.2436 8.99482 20.2942 10.7961 19.2576 11.9832L19.1223 12.1283L18.394 12.8567C18.149 13.1022 17.9974 13.4263 17.9633 13.7704L17.956 13.919V14.948C17.956 16.5517 16.7019 17.8623 15.121 17.9539L14.944 17.959H13.916C13.5675 17.959 13.2307 18.0801 12.9632 18.2983L12.853 18.3977L12.1351 19.1145C11.0099 20.2474 9.20732 20.2976 8.01979 19.2606L7.86565 19.1163L7.14854 18.3992C6.90014 18.1526 6.57571 18.0005 6.2322 17.9663L6.08398 17.959H5.05498C3.45185 17.959 2.1407 16.7055 2.04909 15.1249L2.04398 14.948V13.919C2.04398 13.571 1.92268 13.234 1.7046 12.9669L1.60528 12.8569L0.888155 12.1388C-0.24442 11.0126 -0.294658 9.20997 0.742361 8.02361L0.877652 7.87862L1.60377 7.15151C1.85072 6.9028 2.00254 6.57898 2.03664 6.23463L2.04398 6.08595V5.05895L2.04909 4.88202C2.13731 3.35985 3.35648 2.14032 4.87811 2.05207L5.05498 2.04695H6.08398C6.43246 2.04695 6.76923 1.92607 7.03627 1.70889L7.14628 1.60999L7.86445 0.890824ZM11.1047 1.98051L11.0649 1.94348C10.5106 1.39172 9.63471 1.35941 9.04139 1.84573L8.92668 1.94991L8.20542 2.67216C7.68818 3.18575 7.00405 3.49283 6.2818 3.54044L6.08398 3.54695H5.05498C4.26742 3.54695 3.6197 4.1511 3.55016 4.92138L3.54398 5.05895V6.08595C3.54398 6.81512 3.27937 7.51627 2.80208 8.06433L2.66668 8.20991L1.93951 8.93808C1.38769 9.49237 1.35557 10.3681 1.84322 10.9621L1.94768 11.077L2.66694 11.7973C3.18134 12.3129 3.48963 12.9982 3.53744 13.721L3.54398 13.919V14.948C3.54398 15.736 4.14768 16.3833 4.91749 16.4528L5.05498 16.459H6.08398C6.81177 16.459 7.51352 16.7239 8.06171 17.2012L8.20731 17.3367L8.93062 18.06C9.48884 18.6151 10.3648 18.6474 10.9583 18.1597L11.073 18.0553L11.7939 17.3354C12.3106 16.8211 12.9951 16.5133 13.718 16.4655L13.916 16.459H14.944C15.7327 16.459 16.3803 15.8556 16.4498 15.0855L16.456 14.948V13.919C16.456 13.1901 16.7208 12.4871 17.1975 11.9415L17.3327 11.7967L18.0602 11.0692C18.612 10.5142 18.6439 9.63897 18.157 9.04507L18.0527 8.93028L17.3308 8.2084C16.8169 7.69082 16.5101 7.00739 16.4625 6.28411L16.456 6.08595V5.05895C16.456 4.27054 15.8519 3.62268 15.0816 3.55313L14.944 3.54695H13.916C13.1868 3.54695 12.4848 3.28256 11.9379 2.8056L11.7927 2.67028L11.1047 1.98051ZM12.0364 13.1056C12.1764 13.2456 12.3664 13.3256 12.5664 13.3256C12.7664 13.3256 12.9564 13.2456 13.0964 13.1056C13.1664 13.0356 13.2264 12.9456 13.2664 12.8556C13.2964 12.7656 13.3164 12.6766 13.3164 12.5756C13.3164 12.4756 13.2964 12.3756 13.2664 12.2856C13.2264 12.1956 13.1664 12.1156 13.0964 12.0456C12.8164 11.7656 12.3164 11.7656 12.0364 12.0456C11.9664 12.1156 11.9164 12.1956 11.8764 12.2856C11.8364 12.3756 11.8164 12.4756 11.8164 12.5756C11.8164 12.6766 11.8364 12.7656 11.8764 12.8556C11.9164 12.9456 11.9664 13.0356 12.0364 13.1056ZM7.42628 8.18595C7.32628 8.18595 7.23628 8.16495 7.14628 8.12495C7.05628 8.08495 6.96628 8.03595 6.89628 7.96595C6.82628 7.88595 6.77628 7.80595 6.73628 7.71595C6.69628 7.62495 6.67628 7.53595 6.67628 7.43595C6.67628 7.33495 6.69628 7.23595 6.73628 7.14595C6.77628 7.05595 6.82628 6.96595 6.89628 6.90595C7.18628 6.62495 7.67628 6.62495 7.95628 6.90595C8.09628 7.04495 8.17628 7.23595 8.17628 7.43595C8.17628 7.53595 8.16628 7.62495 8.12628 7.71595C8.08628 7.80595 8.02628 7.88595 7.95628 7.96595C7.88628 8.03595 7.80628 8.08495 7.71628 8.12495C7.62628 8.16495 7.52628 8.18595 7.42628 8.18595ZM13.1 6.90232C12.8071 6.60943 12.3323 6.60943 12.0394 6.90232L6.89935 12.0424L6.82673 12.1265C6.60888 12.4201 6.63308 12.8367 6.89935 13.103C7.19224 13.3959 7.66712 13.3959 7.96001 13.103L13.1 7.96298L13.1726 7.87886C13.3905 7.58525 13.3663 7.16859 13.1 6.90232Z" fill="#200E32"/>
</svg>
