<svg width="15" height="15" viewBox="0 0 15 15" fill="none" xmlns="http://www.w3.org/2000/svg">
<path fill-rule="evenodd" clip-rule="evenodd" d="M2.56584 13.6505C2.76384 14.0202 3.15011 14.2512 3.57012 14.2505C3.74713 14.2512 3.92263 14.21 4.08014 14.1305L7.49426 12.3454C7.50326 12.3402 7.51376 12.3372 7.52426 12.3379L10.9151 14.108C11.0794 14.1965 11.2631 14.2422 11.4491 14.2415C11.5084 14.2415 11.5684 14.2362 11.6269 14.228C12.2374 14.1282 12.6544 13.5567 12.5644 12.9454L11.9044 9.18781C11.9006 9.18235 11.8993 9.18143 11.8993 9.18143L11.8992 9.18031C11.8992 9.17806 11.9044 9.17281 11.9044 9.17281L14.657 6.51022C15.0635 6.11796 15.1153 5.48569 14.777 5.03267C14.5932 4.79566 14.324 4.63966 14.027 4.59766L10.2303 4.05014C10.2236 4.05014 10.2161 4.04264 10.2086 4.03514L8.51279 0.630022C8.32154 0.245258 7.93002 0.00225019 7.50026 0C7.37575 0 7.25125 0.0195007 7.13274 0.0600019C6.84848 0.156755 6.61373 0.360762 6.48022 0.630022L4.78666 4.02539C4.78666 4.04114 4.77091 4.04789 4.75591 4.04789L0.968283 4.59541C0.736525 4.63441 0.520518 4.73791 0.345762 4.89542C0.124504 5.11217 0 5.40993 0 5.72045C0.000750026 6.01521 0.119254 6.29722 0.330011 6.50272L3.10511 9.17281C3.11111 9.17881 3.11336 9.18706 3.11336 9.19531L2.44508 12.9379C2.40533 13.1825 2.44808 13.433 2.56584 13.6505ZM7.47866 1.10028L7.48616 1.09503H7.50041L7.50716 1.10178C7.51391 1.10178 7.51991 1.10328 7.52516 1.10778C7.52966 1.11228 7.53191 1.11828 7.53116 1.12503L9.22622 4.5144C9.38898 4.84816 9.70549 5.08067 10.073 5.13692L13.8696 5.68894C13.8764 5.68894 13.8831 5.69044 13.8891 5.69344C13.8929 5.69419 13.8959 5.69419 13.8996 5.69344L13.9071 5.70019L13.8996 5.71669L11.147 8.38603C10.8733 8.64254 10.751 9.02205 10.8238 9.39032L11.4845 13.1262L11.4695 13.1404H11.4538C11.4508 13.1419 11.4478 13.1419 11.4448 13.1404C11.4373 13.1397 11.4298 13.1367 11.423 13.1329H11.4163L8.04118 11.3704C7.87917 11.2864 7.69917 11.2414 7.51616 11.2421C7.32791 11.2421 7.1419 11.2894 6.97539 11.3779L3.57853 13.1592C3.57478 13.1599 3.57028 13.1599 3.56653 13.1592C3.55078 13.1592 3.53728 13.1487 3.53353 13.1337V13.1187L4.19355 9.38356C4.25505 9.0183 4.13505 8.64554 3.87104 8.38603L1.09594 5.72344C1.09519 5.71219 1.09669 5.70244 1.10269 5.69269L1.14844 5.67769L4.92107 5.13692C5.28859 5.07992 5.60435 4.84816 5.76785 4.5144L7.46366 1.11678C7.46741 1.11003 7.47191 1.10403 7.47866 1.10028Z" fill="#E2E2E2"/>
</svg>
