<svg width="15" height="15" viewBox="0 0 15 15" fill="none" xmlns="http://www.w3.org/2000/svg">
<path fill-rule="evenodd" clip-rule="evenodd" d="M2.56584 13.6505C2.76384 14.0202 3.15011 14.2512 3.57012 14.2505C3.74713 14.2512 3.92263 14.21 4.08014 14.1305L7.49426 12.3454C7.50326 12.3402 7.51376 12.3372 7.52426 12.3379L10.9151 14.108C11.0794 14.1965 11.2631 14.2422 11.4491 14.2415C11.5084 14.2415 11.5684 14.2362 11.6269 14.228C12.2374 14.1282 12.6544 13.5567 12.5644 12.9454L11.9044 9.18781C11.9006 9.18235 11.8995 9.18206 11.8993 9.18143C11.8992 9.1812 11.8992 9.18092 11.8992 9.18031C11.8992 9.17806 11.9044 9.17281 11.9044 9.17281L14.657 6.51022C15.0635 6.11796 15.1153 5.48569 14.777 5.03267C14.5932 4.79566 14.324 4.63966 14.027 4.59766L10.2303 4.05014C10.2236 4.05014 10.2161 4.04264 10.2086 4.03514L8.51279 0.630022C8.32154 0.245258 7.93002 0.00225008 7.50026 0C7.37575 0 7.25125 0.0195007 7.13274 0.060002C6.84848 0.156755 6.61373 0.360762 6.48022 0.630022L4.78666 4.02539C4.78666 4.04114 4.77091 4.04789 4.75591 4.04789L0.968283 4.59541C0.736525 4.63441 0.520518 4.73791 0.345762 4.89542C0.124504 5.11217 0 5.40993 0 5.72045C0.000750026 6.01521 0.119254 6.29722 0.330011 6.50272L3.10511 9.17281C3.11111 9.17881 3.11336 9.18706 3.11336 9.19531L2.44508 12.9379C2.40533 13.1825 2.44808 13.433 2.56584 13.6505ZM7.47864 1.10029L7.48614 1.09504H7.50039L7.50714 1.10179C7.51389 1.10179 7.51989 1.10329 7.52514 1.10779C7.52964 1.11229 7.53189 1.11829 7.53114 1.12504L9.2262 4.5144C9.38895 4.84817 9.70546 5.08067 10.073 5.13693L13.8696 5.68894C13.8764 5.68894 13.8831 5.69044 13.8891 5.69344C13.8929 5.69419 13.8959 5.69419 13.8996 5.69344L13.9071 5.70019L13.8996 5.7167L11.147 8.38604C10.8733 8.64254 10.751 9.02206 10.8238 9.39032L11.4845 13.1262L11.4695 13.1404H11.4538C11.4508 13.1419 11.4478 13.1419 11.4448 13.1404C11.4373 13.1397 11.4298 13.1367 11.423 13.1329H11.4163L8.04116 11.3704C7.87915 11.2864 7.69914 11.2414 7.51614 11.2421C7.32788 11.2421 7.14188 11.2894 6.97537 11.3779L3.5785 13.1592C3.57475 13.1599 3.57025 13.1599 3.5665 13.1592C3.55075 13.1592 3.53725 13.1487 3.5335 13.1337V13.1187L4.19352 9.38357C4.25503 9.01831 4.13502 8.64555 3.87101 8.38604L1.09592 5.72345C1.09517 5.7122 1.09667 5.70245 1.10267 5.69269L1.14842 5.67769L4.92105 5.13693C5.28856 5.07992 5.60432 4.84817 5.76783 4.5144L7.46364 1.11679C7.46739 1.11004 7.47189 1.10404 7.47864 1.10029Z" fill="#FED100"/>
<path d="M7.48614 1.09504L7.47864 1.10029C7.47189 1.10404 7.46739 1.11004 7.46364 1.11679L5.76783 4.5144C5.60432 4.84817 5.28856 5.07992 4.92105 5.13693L1.14842 5.67769L1.10267 5.69269C1.09667 5.70245 1.09517 5.7122 1.09592 5.72345L3.87101 8.38604C4.13502 8.64555 4.25503 9.01831 4.19352 9.38357L3.5335 13.1187V13.1337C3.53725 13.1487 3.55075 13.1592 3.5665 13.1592C3.57025 13.1599 3.57475 13.1599 3.5785 13.1592L6.97537 11.3779C7.14188 11.2894 7.32788 11.2421 7.51614 11.2421C7.69914 11.2414 7.87915 11.2864 8.04116 11.3704L11.4163 13.1329H11.423C11.4298 13.1367 11.4373 13.1397 11.4448 13.1404C11.4478 13.1419 11.4508 13.1419 11.4538 13.1404H11.4695L11.4845 13.1262L10.8238 9.39032C10.751 9.02206 10.8733 8.64254 11.147 8.38604L13.8996 5.7167L13.9071 5.70019L13.8996 5.69344C13.8959 5.69419 13.8929 5.69419 13.8891 5.69344C13.8831 5.69044 13.8764 5.68894 13.8696 5.68894L10.073 5.13693C9.70546 5.08067 9.38895 4.84817 9.2262 4.5144L7.53114 1.12504C7.53189 1.11829 7.52964 1.11229 7.52514 1.10779C7.51989 1.10329 7.51389 1.10179 7.50714 1.10179L7.50039 1.09504H7.48614Z" fill="#FED100"/>
</svg>
