<svg width="41" height="48" viewBox="0 0 41 48" fill="none" xmlns="http://www.w3.org/2000/svg">
<path d="M39.6562 19.346H30.9133V0.937498C30.9133 0.419812 30.4936 0 29.9759 0H10.6178C10.1 0 9.68033 0.419812 9.68033 0.937498V19.346H0.937498C0.419718 19.346 0 19.7658 0 20.2835V25.7419C0 26.2596 0.419718 26.6794 0.937498 26.6794C1.45528 26.6794 1.875 26.2596 1.875 25.7419V21.221H6.51561V27.517C6.51561 28.2351 7.33002 28.6935 7.94455 28.3154L10.6176 26.6701L13.2882 28.3153C13.5774 28.4932 13.9404 28.5012 14.237 28.3355C14.5337 28.1699 14.7174 27.8568 14.7174 27.5171V21.2211H19.3607V29.0017C19.3004 29.0547 19.2387 29.1093 19.1735 29.1673C18.1809 30.0504 16.5196 31.5283 13.0514 32.3249C12.6256 32.4227 12.3237 32.8018 12.3237 33.2386V37.727C12.3237 38.0521 12.3418 38.3727 12.3741 38.6896H1.875V34.1607C1.875 33.6431 1.45528 33.2232 0.937498 33.2232C0.419718 33.2232 0 33.6431 0 34.1607V39.6271C0 40.1448 0.419718 40.5646 0.937498 40.5646H12.7672C13.1464 41.7282 13.7678 42.8221 14.6276 43.8361C15.8391 45.2649 17.4995 46.5495 19.8531 47.8788C19.9962 47.9596 20.1552 48 20.3141 48C20.473 48 20.6319 47.9596 20.7749 47.879C23.1296 46.55 24.7907 45.2654 26.0028 43.8362C26.8628 42.8222 27.4844 41.7282 27.8636 40.5646H39.6562C40.174 40.5646 40.5937 40.1448 40.5937 39.6271V20.2837C40.5937 19.7658 40.174 19.346 39.6562 19.346ZM27.7513 21.221H32.2031V25.8391L30.4672 24.7708C30.1657 24.5852 29.7854 24.5852 29.484 24.771L27.7513 25.8385V21.221ZM18.0709 1.875H22.5227V6.49236L20.7899 5.42483C20.4886 5.2393 20.1083 5.23921 19.8068 5.42465L18.0709 6.49311V1.875ZM11.5553 1.875H16.1959V8.17095C16.1959 8.51061 16.3796 8.82373 16.6761 8.9893C16.9727 9.15514 17.3357 9.14736 17.6249 8.96933L20.298 7.32402L22.9686 8.96914C23.1191 9.06176 23.2896 9.10836 23.4603 9.10836C23.6176 9.10836 23.7751 9.0688 23.9174 8.9893C24.214 8.82364 24.3977 8.51061 24.3977 8.17086V1.875H29.0384V19.346H11.5553V1.875ZM12.8424 25.8384L11.1096 24.7709C10.8081 24.5853 10.428 24.5852 10.1265 24.7707L8.39061 25.8391V21.221H12.8424V25.8384ZM20.3143 45.9805C16.0897 43.4956 14.1988 40.9357 14.1988 37.7269V33.97C17.5335 33.0621 19.3089 31.5539 20.3147 30.6614C21.3206 31.5526 23.0971 33.0619 26.432 33.9699V37.7269C26.432 38.3138 26.3681 38.8788 26.2388 39.4257C26.2374 39.432 26.2359 39.4382 26.2347 39.4445C25.652 41.8806 23.7587 43.9558 20.3143 45.9805ZM38.7187 38.6894H28.2567C28.2889 38.3726 28.3071 38.052 28.3071 37.7268V33.2384C28.3071 32.8016 28.0053 32.4225 27.5794 32.3248C24.1146 31.529 22.4519 30.0519 21.4583 29.1694C21.3802 29.1 21.307 29.0354 21.2356 28.973V21.221H25.8763V27.517C25.8763 27.8567 26.06 28.1699 26.3566 28.3354C26.6533 28.5012 27.0163 28.4933 27.3055 28.3152L29.976 26.67L32.6491 28.3154C33.2637 28.6934 34.0781 28.2351 34.0781 27.5169V21.2209H38.7187V38.6894Z" fill="#EB5757"/>
<path d="M23.621 35.6608C23.2241 35.3283 22.6327 35.3804 22.3003 35.7773L19.3741 39.2693L18.2184 38.2898C17.8233 37.955 17.2317 38.0038 16.8971 38.3988C16.5623 38.7938 16.6112 39.3853 17.0061 39.7202L18.881 41.3093C19.051 41.4533 19.2661 41.5316 19.4871 41.5316C19.5137 41.5316 19.5403 41.5304 19.5669 41.5282C19.8155 41.5069 20.0455 41.3875 20.2057 41.1962L23.7375 36.9816C24.0699 36.5846 24.0178 35.9935 23.621 35.6608Z" fill="#EB5757"/>
<path d="M0.937498 30.8901C1.45528 30.8901 1.875 30.469 1.875 29.9512C1.875 29.4334 1.45528 29.0137 0.937498 29.0137C0.419718 29.0137 0 29.4335 0 29.9512V29.9538C0 30.4716 0.419718 30.8901 0.937498 30.8901Z" fill="#EB5757"/>
</svg>
