<svg width="48" height="48" viewBox="0 0 48 48" fill="none" xmlns="http://www.w3.org/2000/svg">
<path d="M30.5485 6.37402C28.5162 6.37402 26.8629 8.02749 26.8629 10.0599V11.1285C26.8629 11.6462 27.2827 12.0661 27.8004 12.0661C28.3182 12.0661 28.738 11.6462 28.738 11.1285V10.0599C28.738 9.06156 29.5502 8.24931 30.5485 8.24931C31.5468 8.24931 32.3589 9.06156 32.3589 10.0599V11.1285C32.3589 11.484 31.9431 11.9804 31.5408 12.4606C30.9152 13.2073 30.2061 14.0536 30.2061 15.2004V17.8239C30.2061 18.3417 30.6259 18.7615 31.1437 18.7615C31.6615 18.7615 32.0813 18.3417 32.0813 17.8239V15.2004C32.0813 14.7353 32.5169 14.2154 32.9782 13.6649C33.5668 12.9621 34.2341 12.1656 34.2341 11.1285V10.0599C34.2344 8.02759 32.5809 6.37402 30.5485 6.37402Z" fill="#EB5757"/>
<path d="M31.1492 21.0913C30.6314 21.0913 30.2116 21.5111 30.2116 22.0289V22.0315C30.2116 22.5493 30.6314 22.9679 31.1492 22.9679C31.667 22.9679 32.0868 22.5467 32.0868 22.0289C32.0868 21.5111 31.667 21.0913 31.1492 21.0913Z" fill="#EB5757"/>
<path d="M38.8542 6.41943C38.3364 6.41943 37.9166 6.83925 37.9166 7.35703V17.8242C37.9166 18.342 38.3364 18.7618 38.8542 18.7618C39.3719 18.7618 39.7918 18.342 39.7918 17.8242V7.35703C39.7918 6.83925 39.372 6.41943 38.8542 6.41943Z" fill="#EB5757"/>
<path d="M38.8542 21.0859C38.3364 21.0859 37.9166 21.5058 37.9166 22.0235V22.0315C37.9166 22.5493 38.3364 22.9653 38.8542 22.9653C39.3719 22.9653 39.7918 22.5414 39.7918 22.0236C39.7918 21.5057 39.372 21.0859 38.8542 21.0859Z" fill="#EB5757"/>
<path d="M27.5859 32.829C27.5653 32.8083 27.5438 32.7885 27.5213 32.7698C26.0938 31.5791 24.095 31.6035 22.8716 32.8268C22.8716 32.8268 19.4046 36.2949 18.5796 37.1194L18.494 37.2049C15.3085 35.2782 12.7245 32.711 10.7692 29.5317L15.1752 25.128C16.3964 23.9033 16.4206 21.9048 15.2313 20.4791C15.2126 20.4567 15.1929 20.4351 15.1721 20.4145L9.45767 14.7366C8.48408 13.7703 7.56467 13.6768 6.96486 13.7689C6.01133 13.915 5.15539 14.623 4.55464 15.763L1.63911 21.3048C0.900449 22.7085 0.0467612 24.5989 0.00185496 26.7767C-0.0515826 29.3641 1.04979 31.8047 3.27476 34.0297L5.64017 36.4007C5.82326 36.5842 6.06354 36.6761 6.30392 36.6761C6.54354 36.6761 6.78317 36.5848 6.96617 36.4023C7.33283 36.0365 7.33348 35.4428 6.96776 35.0763L4.60161 32.7045C0.651168 28.7538 1.72611 25.1664 3.29867 22.1781L5.03323 18.8811L11.8992 25.7496L9.81514 27.8338C9.5757 27.3666 9.34733 26.8888 9.13198 26.3987C8.92367 25.9244 8.37026 25.7088 7.89645 25.9173C7.42236 26.1255 7.20673 26.6787 7.41504 27.1528C7.82145 28.0779 8.26864 28.9643 8.75473 29.8132C8.76158 29.8266 8.76945 29.8397 8.77704 29.8529C11.5254 34.634 15.5338 38.1969 20.7275 40.465C20.8497 40.5184 20.977 40.5437 21.1024 40.5437C21.4638 40.5437 21.8082 40.3334 21.962 39.981C22.1693 39.5064 21.9526 38.9537 21.478 38.7465C21.044 38.5569 20.62 38.3564 20.2039 38.1474C20.81 37.5418 21.5874 36.7646 22.2514 36.1002L29.1152 42.9665L25.8192 44.7007C22.8333 46.2739 19.2481 47.3497 15.2964 43.3998L12.923 41.0288C12.5564 40.6628 11.9629 40.6631 11.5969 41.0296C11.231 41.3959 11.2312 41.9897 11.5976 42.3557L13.9709 44.7264C16.1447 46.8993 18.523 47.9998 21.0431 47.9998C21.1033 47.9998 21.1636 47.9991 21.2239 47.9978C23.4021 47.9525 25.2909 47.0988 26.6928 46.3602L32.2338 43.4449C33.3745 42.8458 34.0835 41.9899 34.2301 41.0347C34.3222 40.4347 34.2291 39.5153 33.263 38.5437L27.5859 32.829ZM5.94748 17.1434L6.21392 16.6368C6.51645 16.0627 6.91301 15.6741 7.24892 15.6227C7.56336 15.5751 7.90517 15.8381 8.13626 16.0674L13.8163 21.711C14.2892 22.3016 14.45 23.1994 13.8489 23.8023L13.2257 24.4243L5.94748 17.1434ZM32.3765 40.7501C32.3248 41.0866 31.936 41.483 31.3611 41.7849L30.8526 42.0525L23.5767 34.7738L24.1976 34.1528C24.8005 33.5502 25.6981 33.7115 26.2894 34.1848L31.9328 39.8657C32.1619 40.0958 32.4246 40.4363 32.3765 40.7501Z" fill="#EB5757"/>
<path d="M43.7033 4.29627C37.9752 -1.43204 28.6529 -1.43214 22.922 4.29627C20.6483 6.57018 19.2103 9.4513 18.7636 12.6282C18.3503 15.5663 18.8478 18.6129 20.165 21.2539L17.595 29.226C17.487 29.561 17.5757 29.928 17.8246 30.1768C18.0032 30.3554 18.2427 30.4513 18.4875 30.4513C18.5838 30.4513 18.681 30.4365 18.7755 30.406L26.7441 27.8334C29.3861 29.1517 32.4331 29.65 35.3705 29.2368C38.5468 28.7901 41.4282 27.3514 43.7033 25.0761C49.4319 19.347 49.4319 10.0253 43.7033 4.29627ZM42.3772 23.75C38.3534 27.774 32.2821 28.6758 27.27 25.9943C27.0454 25.8742 26.7816 25.8506 26.5396 25.9288L19.9415 28.0589L22.0696 21.458C22.1476 21.2159 22.1239 20.9525 22.004 20.7282C19.3657 15.794 20.2885 9.58218 24.2479 5.62236C26.7481 3.12346 30.0305 1.87433 33.3137 1.87433C36.596 1.87433 39.8791 3.12383 42.3773 5.62227C47.3748 10.6201 47.3748 18.7522 42.3772 23.75Z" fill="#EB5757"/>
<path d="M8.61778 38.0524C8.25159 38.4186 8.25159 39.0123 8.61778 39.3785L8.6204 39.3811C8.80322 39.5638 9.04228 39.6551 9.28153 39.6551C9.52153 39.6551 9.76172 39.5631 9.94509 39.3797C10.3113 39.0135 10.31 38.4185 9.94378 38.0524C9.5775 37.6863 8.98397 37.6863 8.61778 38.0524Z" fill="#EB5757"/>
</svg>
