<svg width="18" height="18" viewBox="0 0 18 18" fill="none" xmlns="http://www.w3.org/2000/svg">
<path fill-rule="evenodd" clip-rule="evenodd" d="M0 1C0 0.447715 0.447715 0 1 0H7.4C7.95228 0 8.4 0.447715 8.4 1V7.4C8.4 7.95228 7.95228 8.4 7.4 8.4H1C0.447715 8.4 0 7.95228 0 7.4V1ZM2 2V6.4H6.4V2H2Z" fill="#F6412D"/>
<path fill-rule="evenodd" clip-rule="evenodd" d="M9.5996 1C9.5996 0.447715 10.0473 0 10.5996 0H16.9996C17.5519 0 17.9996 0.447715 17.9996 1V7.4C17.9996 7.95228 17.5519 8.4 16.9996 8.4H10.5996C10.0473 8.4 9.5996 7.95228 9.5996 7.4V1ZM11.5996 2V6.4H15.9996V2H11.5996Z" fill="#F6412D"/>
<path fill-rule="evenodd" clip-rule="evenodd" d="M0 10.6C0 10.0477 0.447715 9.6 1 9.6H7.4C7.95228 9.6 8.4 10.0477 8.4 10.6V17C8.4 17.5523 7.95228 18 7.4 18H1C0.447715 18 0 17.5523 0 17V10.6ZM2 11.6V16H6.4V11.6H2Z" fill="#F6412D"/>
<path fill-rule="evenodd" clip-rule="evenodd" d="M9.5996 10.6C9.5996 10.0477 10.0473 9.6 10.5996 9.6H16.9996C17.5519 9.6 17.9996 10.0477 17.9996 10.6V17C17.9996 17.5523 17.5519 18 16.9996 18H10.5996C10.0473 18 9.5996 17.5523 9.5996 17V10.6ZM11.5996 11.6V16H15.9996V11.6H11.5996Z" fill="#F6412D"/>
</svg>
