<svg width="26" height="25" viewBox="0 0 26 25" fill="none" xmlns="http://www.w3.org/2000/svg">
<path fill-rule="evenodd" clip-rule="evenodd" d="M0 9.00015C0 7.89559 0.895419 7.00015 2 7.00015H24C25.1046 7.00015 26 7.8956 26 9.00015V13.0001C26 14.1047 25.1046 15.0001 24 15.0001H2C0.895432 15.0001 0 14.1047 0 13.0001V9.00015ZM24 9.00015H2V13.0001H24V9.00015Z" fill="#333333"/>
<path fill-rule="evenodd" clip-rule="evenodd" d="M3 13.0001C3.55228 13.0001 4 13.4478 4 14.0001V23.0001H22V14.0001C22 13.4478 22.4477 13.0001 23 13.0001C23.5523 13.0001 24 13.4478 24 14.0001V23.0001C24 23.5306 23.7892 24.0393 23.4142 24.4143C23.039 24.7897 22.5301 25.0001 22 25.0001H4C3.46977 25.0001 2.96104 24.7896 2.58584 24.4144M2.58584 24.4144C2.21079 24.0393 2 23.5304 2 23.0001V14.0001C2 13.4478 2.44772 13.0001 3 13.0001" fill="#333333"/>
<path fill-rule="evenodd" clip-rule="evenodd" d="M13 7.00015C13.5523 7.00015 14 7.44786 14 8.00015V24.0001C14 24.5524 13.5523 25.0001 13 25.0001C12.4477 25.0001 12 24.5524 12 24.0001V8.00015C12 7.44786 12.4477 7.00015 13 7.00015Z" fill="#333333"/>
<path fill-rule="evenodd" clip-rule="evenodd" d="M16.5349 2.46582C16.0047 2.46567 15.4962 2.67603 15.1211 3.05063C15.121 3.05068 15.1211 3.05057 15.1211 3.05063M14.0473 6.95286C14.0721 6.62376 14.1097 6.24249 14.1667 5.84346C14.2503 5.25828 14.3722 4.65939 14.5453 4.14002C14.724 3.60379 14.9279 3.24406 15.1211 3.05063M13 8.00014C12 8.00014 12 8.00034 12 8.00015L12 7.99806L12 7.99442L12.0001 7.98258L12.0004 7.94116C12.0008 7.90589 12.0016 7.85553 12.003 7.79183C12.006 7.66451 12.0119 7.48342 12.0235 7.26257C12.0466 6.82241 12.0931 6.21687 12.1868 5.56062C12.28 4.90838 12.4233 4.18144 12.6479 3.50757C12.8668 2.85091 13.1933 2.14995 13.7071 1.63619C14.4574 0.886725 15.475 0.465514 16.5355 0.46582C17.5959 0.466114 18.6129 0.887541 19.3627 1.63739C20.1125 2.3872 20.534 3.40409 20.5343 4.46458M14.0473 6.95286C14.3764 6.92806 14.7576 6.89042 15.1567 6.83342C15.7419 6.74982 16.3407 6.62796 16.8601 6.45484C17.3966 6.27602 17.7563 6.07225 17.9497 5.87894C17.9497 5.87889 17.9496 5.87899 17.9497 5.87894M17.9497 5.87894C18.3241 5.50377 18.5345 4.99523 18.5343 4.46534C18.5342 3.93517 18.3235 3.42657 17.9485 3.05161C17.5735 2.67666 17.0651 2.46597 16.5349 2.46582M20.5343 4.46458C20.5347 5.52514 20.1137 6.54239 19.3645 7.29258C18.8507 7.80634 18.1492 8.13332 17.4926 8.35221C16.8187 8.57683 16.0918 8.72014 15.4395 8.81331C14.7833 8.90706 14.1777 8.9535 13.7376 8.97666C13.5167 8.98829 13.3356 8.99415 13.2083 8.99711C13.1446 8.99859 13.0943 8.99935 13.059 8.99973L13.0176 9.00008L13.0057 9.00013L13.0021 9.00014L13.0008 9.00014C13.0007 9.00014 13 9.00014 13 8.00014L13.0008 9.00014C12.4486 9.00014 12 8.55243 12 8.00015L13 8.00014" fill="#333333"/>
<path fill-rule="evenodd" clip-rule="evenodd" d="M9.46468 0.46582C10.5251 0.465514 11.5423 0.886341 12.2926 1.63579C12.8064 2.14956 13.1333 2.85091 13.3522 3.50757C13.5768 4.18144 13.7201 4.90838 13.8133 5.56062C13.907 6.21687 13.9535 6.82241 13.9766 7.26257C13.9882 7.48342 13.9941 7.66451 13.9971 7.79183C13.9985 7.85553 13.9993 7.90589 13.9997 7.94116L14 7.98258L14.0001 7.99442L14.0001 7.99806L14 8.00015C14 8.00034 14 8.00014 13 8.00014C13 9.00014 12.9999 9.00014 12.9997 9.00014L12.998 9.00014L12.9944 9.00013L12.9825 9.00008L12.9411 8.99973C12.9058 8.99935 12.8555 8.99859 12.7918 8.99711C12.6645 8.99415 12.4834 8.98828 12.2625 8.97666C11.8224 8.9535 11.2168 8.90706 10.5606 8.81331C9.90836 8.72014 9.18143 8.57683 8.50756 8.3522C7.85091 8.13332 7.14995 7.8068 6.63619 7.29304C5.88675 6.54275 5.46551 5.52515 5.46582 4.46467C5.46613 3.40421 5.88753 2.38726 6.63739 1.63739C7.38726 0.887531 8.40419 0.466114 9.46468 0.46582ZM13 8.00014L12.9997 9.00014C13.552 9.00014 14 8.55243 14 8.00015L13 8.00014ZM11.9528 6.95286C11.928 6.62376 11.8904 6.24249 11.8334 5.84346C11.7498 5.25828 11.6279 4.65939 11.4548 4.14002C11.276 3.60353 11.0722 3.24386 10.8789 3.0505C10.8789 3.05047 10.8789 3.05054 10.8789 3.0505M8.05039 5.87882C8.24374 6.07216 8.60344 6.27598 9.14002 6.45484C9.65939 6.62796 10.2583 6.74982 10.8435 6.83342C11.2425 6.89042 11.6237 6.92806 11.9528 6.95286M8.05039 5.87882C7.67593 5.50371 7.46567 4.9953 7.46582 4.46525C7.46597 3.93501 7.67667 3.42654 8.05161 3.05161C8.42654 2.67667 8.93502 2.46597 9.46525 2.46582C9.99527 2.46567 10.5038 2.67604 10.8789 3.0505" fill="#333333"/>
</svg>
