<svg width="20" height="20" viewBox="0 0 20 20" fill="none" xmlns="http://www.w3.org/2000/svg">
<path fill-rule="evenodd" clip-rule="evenodd" d="M6.01348 0H2.97574C1.33089 0 0 1.34244 0 2.99552V6.05963C0 7.71203 1.33117 9.05515 2.97574 9.05515H6.01348C7.65805 9.05515 8.98922 7.71203 8.98922 6.05963V2.99552C8.98922 1.34244 7.65833 0 6.01348 0ZM2.97575 1.39532H6.01349C6.88499 1.39532 7.59388 2.11036 7.59388 2.99549V6.05961C7.59388 6.94415 6.88462 7.65978 6.01349 7.65978H2.97575C2.10461 7.65978 1.39536 6.94415 1.39536 6.05961V2.99549C1.39536 2.11036 2.10424 1.39532 2.97575 1.39532ZM17.0252 0H13.9865C12.3417 0 11.0108 1.34244 11.0108 2.99552V6.05963C11.0108 7.71203 12.3419 9.05515 13.9865 9.05515H17.0252C18.669 9.05515 20 7.71184 20 6.05963V2.99552C20 1.34264 18.6693 0 17.0252 0ZM13.9865 1.39532H17.0252C17.8959 1.39532 18.6047 2.11047 18.6047 2.99549V6.05961C18.6047 6.94405 17.8955 7.65978 17.0252 7.65978H13.9865C13.1154 7.65978 12.4061 6.94415 12.4061 6.05961V2.99549C12.4061 2.11036 13.115 1.39532 13.9865 1.39532ZM2.97574 10.9448H6.01348C7.65852 10.9448 8.98922 12.2875 8.98922 13.9413V17.0045C8.98922 18.6575 7.65833 20 6.01348 20H2.97574C1.33089 20 0 18.6575 0 17.0045V13.9413C0 12.2875 1.3307 10.9448 2.97574 10.9448ZM6.01349 12.3402H2.97575C2.10414 12.3402 1.39536 13.0554 1.39536 13.9413V17.0045C1.39536 17.8896 2.10424 18.6047 2.97575 18.6047H6.01349C6.88499 18.6047 7.59388 17.8896 7.59388 17.0045V13.9413C7.59388 13.0554 6.8851 12.3402 6.01349 12.3402ZM17.0252 10.9448H13.9865C12.3415 10.9448 11.0108 12.2875 11.0108 13.9413V17.0045C11.0108 18.6575 12.3417 20 13.9865 20H17.0252C18.6693 20 20 18.6573 20 17.0045V13.9413C20 12.2877 18.6695 10.9448 17.0252 10.9448ZM13.9865 12.3402H17.0252C17.896 12.3402 18.6047 13.0555 18.6047 13.9413V17.0045C18.6047 17.8895 17.8959 18.6047 17.0252 18.6047H13.9865C13.115 18.6047 12.4061 17.8896 12.4061 17.0045V13.9413C12.4061 13.0554 13.1149 12.3402 13.9865 12.3402Z" fill="#FED100"/>
</svg>
