<svg width="22" height="16" viewBox="0 0 22 16" fill="none" xmlns="http://www.w3.org/2000/svg">
<path d="M1 0.25C0.585786 0.25 0.25 0.585786 0.25 1C0.25 1.41421 0.585786 1.75 1 1.75V0.25ZM21 1.75C21.4142 1.75 21.75 1.41421 21.75 1C21.75 0.585786 21.4142 0.25 21 0.25V1.75ZM1 7.25C0.585786 7.25 0.25 7.58579 0.25 8C0.25 8.41421 0.585786 8.75 1 8.75V7.25ZM21 8.75C21.4142 8.75 21.75 8.41421 21.75 8C21.75 7.58579 21.4142 7.25 21 7.25V8.75ZM21 15.75C21.4142 15.75 21.75 15.4142 21.75 15C21.75 14.5858 21.4142 14.25 21 14.25V15.75ZM1 14.25C0.585786 14.25 0.25 14.5858 0.25 15C0.25 15.4142 0.585786 15.75 1 15.75V14.25ZM1 1.75H21V0.25H1V1.75ZM1 8.75H21V7.25H1V8.75ZM21 14.25H1V15.75H21V14.25Z" fill="#333333"/>
</svg>
