<svg width="23" height="20" viewBox="0 0 23 20" fill="none" xmlns="http://www.w3.org/2000/svg">
<path d="M11.2273 19C11.2273 19 1 13.2727 1 6.31819C1.00021 5.08901 1.42612 3.89784 2.20533 2.94719C2.98454 1.99655 4.06894 1.34512 5.27417 1.10365C6.4794 0.862185 7.73106 1.04559 8.81635 1.62268C9.90164 2.19977 10.7536 3.13492 11.2273 4.26915V4.26916C11.701 3.13493 12.5529 2.19977 13.6382 1.62268C14.7235 1.04559 15.9751 0.862186 17.1804 1.10365C18.3856 1.34512 19.47 1.99655 20.2492 2.94719C21.0284 3.89784 21.4543 5.08901 21.4545 6.31819C21.4545 13.2727 11.2273 19 11.2273 19Z" stroke="#333333" stroke-width="2" stroke-linecap="round" stroke-linejoin="round"/>
</svg>
