<svg width="20" height="20" viewBox="0 0 20 20" fill="none" xmlns="http://www.w3.org/2000/svg">
<path fill-rule="evenodd" clip-rule="evenodd" d="M0.40482 9.82952C-0.826136 6.00569 0.811517 1.99738 4.48311 0.815291C6.2404 0.250031 8.14194 0.45344 9.73299 1.35623L9.99639 1.51429L10.2645 1.35535C11.773 0.501301 13.5624 0.273087 15.2463 0.736231L15.512 0.81535C19.1847 1.9978 20.8291 6.00801 19.5937 9.84515C18.9743 11.6301 17.9584 13.2485 16.6174 14.5824C14.7927 16.3545 12.7812 17.9194 10.6218 19.2473L10.3926 19.3897C10.1598 19.5344 9.86561 19.5369 9.63044 19.3961L9.38488 19.2491C7.22254 17.9194 5.21101 16.3545 3.38004 14.5762C2.04534 13.2485 1.02947 11.6301 0.40482 9.82952ZM13.8704 4.48358C13.4856 4.36077 13.074 4.57288 12.9511 4.95733C12.8282 5.34178 13.0405 5.753 13.4253 5.87581C14.1815 6.11719 14.7207 6.79787 14.7882 7.6008C14.8221 8.00297 15.1758 8.30159 15.5783 8.26778C15.9808 8.23397 16.2797 7.88054 16.2458 7.47837C16.1289 6.08843 15.1918 4.90535 13.8704 4.48358Z" fill="#333333"/>
</svg>
