<svg width="26" height="22" viewBox="0 0 26 22" fill="none" xmlns="http://www.w3.org/2000/svg">
<path fill-rule="evenodd" clip-rule="evenodd" d="M11 8.99999C11 8.44771 10.5523 7.99999 10 7.99999H5C4.44772 7.99999 4 8.44771 4 8.99999C4 9.55228 4.44772 9.99999 5 9.99999H10C10.5523 9.99999 11 9.55228 11 8.99999Z" fill="#333333"/>
<path fill-rule="evenodd" clip-rule="evenodd" d="M11 13C11 12.4477 10.5523 12 10 12H5C4.44772 12 4 12.4477 4 13C4 13.5523 4.44772 14 5 14H10C10.5523 14 11 13.5523 11 13Z" fill="#333333"/>
<path fill-rule="evenodd" clip-rule="evenodd" d="M17.4873 7.99999C18.5919 7.99999 19.4873 8.89542 19.4873 9.99999C19.4873 11.1046 18.5919 12 17.4873 12C16.3827 12 15.4873 11.1046 15.4873 9.99999C15.4873 8.89542 16.3827 7.99999 17.4873 7.99999ZM21.4873 9.99999C21.4873 7.79085 19.6964 5.99999 17.4873 5.99999C15.2782 5.99999 13.4873 7.79085 13.4873 9.99999C13.4873 12.2091 15.2782 14 17.4873 14C19.6964 14 21.4873 12.2091 21.4873 9.99999Z" fill="#333333"/>
<path fill-rule="evenodd" clip-rule="evenodd" d="M17.4872 14C18.1524 14 18.7988 14.221 19.3248 14.6283C19.8507 15.0356 20.2264 15.6061 20.3929 16.2502C20.5311 16.7849 21.0766 17.1063 21.6113 16.9681C22.1461 16.8299 22.4675 16.2844 22.3293 15.7497C22.0519 14.6764 21.4257 13.7258 20.5493 13.0471C19.6729 12.3683 18.5958 12 17.4873 12C16.3788 12 15.3017 12.3682 14.4252 13.0469C13.5487 13.7255 12.9225 14.6761 12.6451 15.7493C12.5068 16.284 12.8282 16.8296 13.3629 16.9678C13.8976 17.1061 14.4431 16.7847 14.5814 16.25C14.7479 15.6059 15.1237 15.0355 15.6496 14.6282C16.1756 14.221 16.822 14 17.4872 14Z" fill="#333333"/>
<path fill-rule="evenodd" clip-rule="evenodd" d="M26 2C26 0.89543 25.1046 0 24 0H2C0.89543 0 0 0.89543 0 2V20C0 21.1046 0.89543 22 2 22H24C25.1046 22 26 21.1046 26 20V2ZM2 2H24V20H2V2Z" fill="#333333"/>
</svg>
