<svg width="22" height="18" viewBox="0 0 22 18" fill="none" xmlns="http://www.w3.org/2000/svg">
<path fill-rule="evenodd" clip-rule="evenodd" d="M12 7.40002C12 6.84774 12.4477 6.40002 13 6.40002H17C17.5523 6.40002 18 6.84774 18 7.40002C18 7.95231 17.5523 8.40002 17 8.40002H13C12.4477 8.40002 12 7.95231 12 7.40002Z" fill="#333333"/>
<path fill-rule="evenodd" clip-rule="evenodd" d="M12 10.6C12 10.0477 12.4477 9.59998 13 9.59998H17C17.5523 9.59998 18 10.0477 18 10.6C18 11.1523 17.5523 11.6 17 11.6H13C12.4477 11.6 12 11.1523 12 10.6Z" fill="#333333"/>
<path fill-rule="evenodd" clip-rule="evenodd" d="M3.61035 8.20005C3.61035 6.32227 5.13259 4.80005 7.01035 4.80005C8.88811 4.80005 10.4104 6.32227 10.4104 8.20005C10.4104 10.0778 8.88812 11.6 7.01035 11.6C5.13259 11.6 3.61035 10.0778 3.61035 8.20005ZM7.01035 6.80005C6.23715 6.80005 5.61035 7.42685 5.61035 8.20005C5.61035 8.97324 6.23716 9.60005 7.01035 9.60005C7.78355 9.60005 8.41035 8.97324 8.41035 8.20005C8.41035 7.42685 7.78355 6.80005 7.01035 6.80005Z" fill="#333333"/>
<path fill-rule="evenodd" clip-rule="evenodd" d="M7.0102 11.6C6.52243 11.6 6.04842 11.7621 5.66264 12.0608C5.27692 12.3595 5.00139 12.7779 4.87931 13.2501C4.74109 13.7849 4.19557 14.1063 3.66086 13.9681C3.12615 13.8298 2.80474 13.2843 2.94295 12.7496C3.17599 11.8481 3.70192 11.0496 4.4381 10.4795L4.4381 10.4795C5.17425 9.90946 6.07897 9.59998 7.0102 9.59998C7.94132 9.59998 8.84603 9.9093 9.58223 10.4792L9.58231 10.4793C10.3185 11.0494 10.8445 11.8479 11.0776 12.7494C11.2158 13.2841 10.8944 13.8296 10.3597 13.9678C9.82499 14.1061 9.27947 13.7847 9.14123 13.25C9.01915 12.7777 8.74363 12.3594 8.35789 12.0607M7.0102 11.6C7.49803 11.6 7.97206 11.762 8.35781 12.0606Z" fill="#333333"/>
<path fill-rule="evenodd" clip-rule="evenodd" d="M0 1.8C0 0.805885 0.805885 0 1.8 0H19.4C20.3941 0 21.2 0.805859 21.2 1.8V16.2C21.2 17.1941 20.3941 18 19.4 18H1.8C0.805862 18 0 17.1941 0 16.2V1.8ZM2 2V16H19.2V2H2Z" fill="#333333"/>
</svg>
