<svg width="26" height="26" viewBox="0 0 26 26" fill="none" xmlns="http://www.w3.org/2000/svg">
<path fill-rule="evenodd" clip-rule="evenodd" d="M0 13C0 5.8203 5.8203 0 13 0C20.1797 0 26 5.82029 26 13C26 20.1797 20.1797 26 13 26C5.82029 26 0 20.1797 0 13ZM13 2C6.92486 2 2 6.92486 2 13C2 19.0751 6.92487 24 13 24C19.0751 24 24 19.0751 24 13C24 6.92487 19.0751 2 13 2Z" fill="#FED100"/>
<path fill-rule="evenodd" clip-rule="evenodd" d="M11 12C11 11.4477 11.4477 11 12 11H13C13.5523 11 14 11.4477 14 12V18C14.5523 18 15 18.4477 15 19C15 19.5523 14.5523 20 14 20H13C12.4477 20 12 19.5523 12 19V13C11.4477 13 11 12.5523 11 12Z" fill="#FED100"/>
<path d="M13 9C13.8284 9 14.5 8.32843 14.5 7.5C14.5 6.67157 13.8284 6 13 6C12.1716 6 11.5 6.67157 11.5 7.5C11.5 8.32843 12.1716 9 13 9Z" fill="#FED100"/>
</svg>
