<svg width="20" height="21" viewBox="0 0 20 21" fill="none" xmlns="http://www.w3.org/2000/svg">
<path fill-rule="evenodd" clip-rule="evenodd" d="M17.0135 0H2.97574C1.33089 0 0 1.34245 0 2.99552V6.05963C0 7.71203 1.33117 9.05515 2.97574 9.05515H17.0135C18.658 9.05515 19.9892 7.71203 19.9892 6.05963V2.99552C19.9892 1.34245 18.6583 0 17.0135 0ZM2.97575 1.39532H17.0135C17.885 1.39532 18.5939 2.11036 18.5939 2.99549V6.05961C18.5939 6.94415 17.8846 7.65977 17.0135 7.65977H2.97575C2.10461 7.65977 1.39536 6.94415 1.39536 6.05961V2.99549C1.39536 2.11036 2.10424 1.39532 2.97575 1.39532ZM17.0135 11H2.97574C1.33089 11 0 12.3424 0 13.9955V17.0596C0 18.712 1.33117 20.0551 2.97574 20.0551H17.0135C18.658 20.0551 19.9892 18.712 19.9892 17.0596V13.9955C19.9892 12.3424 18.6583 11 17.0135 11ZM2.97575 12.3953H17.0135C17.885 12.3953 18.5939 13.1104 18.5939 13.9955V17.0596C18.5939 17.9442 17.8846 18.6598 17.0135 18.6598H2.97575C2.10461 18.6598 1.39536 17.9442 1.39536 17.0596V13.9955C1.39536 13.1104 2.10424 12.3953 2.97575 12.3953Z" fill="#8A8A8A"/>
</svg>
