<svg width="21" height="23" viewBox="0 0 21 23" fill="none" xmlns="http://www.w3.org/2000/svg">
<path fill-rule="evenodd" clip-rule="evenodd" d="M7.45361 13.6818C7.45361 11.9998 8.81715 10.6364 10.4991 10.6364C12.181 10.6364 13.5445 11.9998 13.5445 13.6818C13.5445 15.3638 12.181 16.7273 10.4991 16.7273C8.81709 16.7273 7.45361 15.3638 7.45361 13.6818ZM10.4991 12.6364C9.92163 12.6364 9.45361 13.1044 9.45361 13.6818C9.45361 14.2592 9.9217 14.7273 10.4991 14.7273C11.0764 14.7273 11.5445 14.2592 11.5445 13.6818C11.5445 13.1044 11.0765 12.6364 10.4991 12.6364Z" fill="#333333"/>
<path fill-rule="evenodd" clip-rule="evenodd" d="M10.4991 14.7273C11.0514 14.7273 11.4995 15.175 11.4995 15.7273V18.1818C11.4995 18.7341 11.0518 19.1818 10.4995 19.1818C9.94723 19.1818 9.49951 18.7341 9.49951 18.1818V15.7273C9.49951 15.175 9.94679 14.7273 10.4991 14.7273Z" fill="#333333"/>
<path fill-rule="evenodd" clip-rule="evenodd" d="M0.499512 9.18181C0.499512 8.17766 1.31354 7.36363 2.31769 7.36363H18.6813C19.6855 7.36363 20.4995 8.17765 20.4995 9.18181V20.6364C20.4995 21.6406 19.6854 22.4545 18.6813 22.4545H2.31769C1.31361 22.4545 0.499512 21.6406 0.499512 20.6364V9.18181ZM2.49951 9.36363V20.4545H18.4995V9.36363H2.49951Z" fill="#333333"/>
<path fill-rule="evenodd" clip-rule="evenodd" d="M10.4997 2C9.78842 2 9.10629 2.28255 8.60336 2.78548C8.10043 3.28841 7.81787 3.97055 7.81787 4.68182V8.36364C7.81787 8.91592 7.37016 9.36364 6.81787 9.36364C6.26559 9.36364 5.81787 8.91592 5.81787 8.36364V4.68182C5.81787 3.44013 6.31112 2.24929 7.18914 1.37128C7.18914 1.37128 7.18914 1.37128 7.18914 1.37128M7.18914 1.37128C8.06715 0.493258 9.25801 0 10.4997 0C11.7415 0 12.9322 0.493272 13.8102 1.37126C14.6883 2.24927 15.1815 3.44013 15.1815 4.68182V8.36364C15.1815 8.91592 14.7338 9.36364 14.1815 9.36364C13.6292 9.36364 13.1815 8.91592 13.1815 8.36364V4.68182C13.1815 3.97055 12.899 3.28843 12.396 2.7855C11.893 2.28253 11.211 2 10.4997 2" fill="#333333"/>
</svg>
