<svg width="19" height="23" viewBox="0 0 19 23" fill="none" xmlns="http://www.w3.org/2000/svg">
<path fill-rule="evenodd" clip-rule="evenodd" d="M5.29931 9C5.29931 6.68041 7.17972 4.8 9.49931 4.8C11.8189 4.8 13.6993 6.6804 13.6993 9C13.6993 11.3196 11.8189 13.2 9.49931 13.2C7.17971 13.2 5.29931 11.3196 5.29931 9ZM9.49931 6.8C8.28429 6.8 7.29931 7.78497 7.29931 9C7.29931 10.215 8.28429 11.2 9.49931 11.2C10.7143 11.2 11.6993 10.215 11.6993 9C11.6993 7.78498 10.7143 6.8 9.49931 6.8Z" fill="#333333"/>
<path fill-rule="evenodd" clip-rule="evenodd" d="M9.49951 2C7.643 2 5.86252 2.73749 4.54977 4.05025C3.23701 5.36301 2.49951 7.14349 2.49951 9C2.49951 12.2399 4.31136 15.2096 6.25412 17.4438C7.21328 18.5469 8.17501 19.4367 8.89716 20.0506C9.12516 20.2444 9.32854 20.41 9.49951 20.5456C9.67048 20.41 9.87386 20.2444 10.1019 20.0506C10.824 19.4367 11.7857 18.5469 12.7449 17.4438C14.6877 15.2096 16.4995 12.2399 16.4995 9C16.4995 7.1435 15.762 5.36301 14.4493 4.05024C13.1365 2.7375 11.356 2 9.49951 2ZM9.49951 21.8C8.92605 22.6192 8.92547 22.6188 8.92547 22.6188L8.92265 22.6168L8.91634 22.6124L8.8952 22.5974C8.87737 22.5846 8.85216 22.5665 8.82006 22.543C8.75585 22.4962 8.66403 22.4281 8.54852 22.3398C8.31761 22.1633 7.99149 21.9056 7.60186 21.5744C6.82401 20.9133 5.78574 19.9531 4.74491 18.7562C2.68766 16.3904 0.499512 12.9601 0.499512 9C0.499512 6.61306 1.44772 4.32387 3.13555 2.63605M3.13555 2.63605C4.82338 0.948209 7.11257 0 9.49951 0C11.8864 0 14.1757 0.948201 15.8635 2.63604C17.5512 4.32385 18.4995 6.61304 18.4995 9C18.4995 12.9601 16.3114 16.3904 14.2541 18.7562C13.2133 19.9531 12.175 20.9133 11.3972 21.5744C11.0075 21.9056 10.6814 22.1633 10.4505 22.3398C10.335 22.4281 10.2432 22.4962 10.179 22.543C10.1469 22.5665 10.1216 22.5846 10.1038 22.5974L10.0827 22.6124L10.0764 22.6168L10.0743 22.6183C10.0743 22.6183 10.073 22.6192 9.49951 21.8L10.073 22.6192C9.72865 22.8603 9.26979 22.8599 8.92547 22.6188L9.49951 21.8" fill="#333333"/>
</svg>
