<svg width="20" height="20" viewBox="0 0 20 20" fill="none" xmlns="http://www.w3.org/2000/svg">
<path fill-rule="evenodd" clip-rule="evenodd" d="M4.68182 2C3.20069 2 2 3.20069 2 4.68182C2 6.16295 3.20069 7.36364 4.68182 7.36364C6.16295 7.36364 7.36364 6.16295 7.36364 4.68182C7.36364 3.20069 6.16295 2 4.68182 2ZM0 4.68182C0 2.09612 2.09612 0 4.68182 0C7.26751 0 9.36364 2.09612 9.36364 4.68182C9.36364 7.26751 7.26751 9.36364 4.68182 9.36364C2.09612 9.36364 0 7.26751 0 4.68182ZM15.3182 2C13.8371 2 12.6364 3.20069 12.6364 4.68182C12.6364 6.16295 13.8371 7.36364 15.3182 7.36364C16.7994 7.36364 18 6.16295 18 4.68182C18 3.20069 16.7994 2 15.3182 2ZM10.6364 4.68182C10.6364 2.09612 12.7325 0 15.3182 0C17.9039 0 20 2.09612 20 4.68182C20 7.26751 17.9039 9.36364 15.3182 9.36364C12.7325 9.36364 10.6364 7.26751 10.6364 4.68182ZM4.68182 12.6364C3.20069 12.6364 2 13.837 2 15.3182C2 16.7993 3.20069 18 4.68182 18C6.16295 18 7.36364 16.7993 7.36364 15.3182C7.36364 13.837 6.16295 12.6364 4.68182 12.6364ZM0 15.3182C0 12.7325 2.09612 10.6364 4.68182 10.6364C7.26751 10.6364 9.36364 12.7325 9.36364 15.3182C9.36364 17.9039 7.26751 20 4.68182 20C2.09612 20 0 17.9039 0 15.3182ZM15.3182 12.6364C13.8371 12.6364 12.6364 13.837 12.6364 15.3182C12.6364 16.7993 13.8371 18 15.3182 18C16.7994 18 18 16.7993 18 15.3182C18 13.837 16.7994 12.6364 15.3182 12.6364ZM10.6364 15.3182C10.6364 12.7325 12.7325 10.6364 15.3182 10.6364C17.9039 10.6364 20 12.7325 20 15.3182C20 17.9039 17.9039 20 15.3182 20C12.7325 20 10.6364 17.9039 10.6364 15.3182Z" fill="#333333"/>
</svg>
