<svg width="20" height="20" viewBox="0 0 20 20" fill="none" xmlns="http://www.w3.org/2000/svg">
<path fill-rule="evenodd" clip-rule="evenodd" d="M14.3347 0.000183105H5.66573C2.26816 0.000183105 0.000732422 2.43278 0.000732422 5.91618V14.0842C0.000732422 17.5712 2.26143 20.0002 5.66573 20.0002H14.3337C17.7383 20.0002 20.0007 17.5709 20.0007 14.0842V5.91618C20.0007 2.42969 17.7385 0.000183105 14.3347 0.000183105ZM5.66573 1.50018H14.3347C16.8852 1.50018 18.5007 3.23515 18.5007 5.91618V14.0842C18.5007 16.7653 16.8851 18.5002 14.3337 18.5002H5.66573C3.11487 18.5002 1.50073 16.7659 1.50073 14.0842V5.91618C1.50073 3.23856 3.12107 1.50018 5.66573 1.50018ZM4.32283 10.0004C4.32283 10.6604 4.85983 11.1974 5.52083 11.1974C6.18183 11.1974 6.71883 10.6604 6.71883 10.0004C6.71883 9.34038 6.18183 8.80238 5.52083 8.80238C4.85983 8.80238 4.32283 9.34038 4.32283 10.0004ZM10.0002 11.1974C9.33923 11.1974 8.80223 10.6604 8.80223 10.0004C8.80223 9.34038 9.33923 8.80238 10.0002 8.80238C10.6612 8.80238 11.1982 9.34038 11.1982 10.0004C11.1982 10.6604 10.6612 11.1974 10.0002 11.1974ZM13.2812 10.0004C13.2812 10.6604 13.8182 11.1974 14.4792 11.1974C15.1402 11.1974 15.6772 10.6604 15.6772 10.0004C15.6772 9.34038 15.1402 8.80238 14.4792 8.80238C13.8182 8.80238 13.2812 9.34038 13.2812 10.0004Z" fill="#200E32"/>
</svg>
