<svg width="19" height="22" viewBox="0 0 19 22" fill="none" xmlns="http://www.w3.org/2000/svg">
<path fill-rule="evenodd" clip-rule="evenodd" d="M0 11C0 8.7908 1.79088 7 4 7C6.20912 7 8 8.7908 8 11C8 13.2092 6.20912 15 4 15C1.79088 15 0 13.2092 0 11ZM4 9C2.89542 9 2 9.8954 2 11C2 12.1046 2.89542 13 4 13C5.10458 13 6 12.1046 6 11C6 9.8954 5.10458 9 4 9Z" fill="#333333"/>
<path fill-rule="evenodd" clip-rule="evenodd" d="M10.5 17.75C10.5 15.5408 12.2908 13.75 14.5 13.75C16.7092 13.75 18.5 15.5408 18.5 17.75C18.5 19.9592 16.7092 21.75 14.5 21.75C12.2908 21.75 10.5 19.9592 10.5 17.75ZM14.5 15.75C13.3954 15.75 12.5 16.6454 12.5 17.75C12.5 18.8546 13.3954 19.75 14.5 19.75C15.6046 19.75 16.5 18.8546 16.5 17.75C16.5 16.6454 15.6046 15.75 14.5 15.75Z" fill="#333333"/>
<path fill-rule="evenodd" clip-rule="evenodd" d="M10.5 4.25C10.5 2.04088 12.2908 0.25 14.5 0.25C16.7092 0.25 18.5 2.04088 18.5 4.25C18.5 6.45912 16.7092 8.25 14.5 8.25C12.2908 8.25 10.5 6.45912 10.5 4.25ZM14.5 2.25C13.3954 2.25 12.5 3.14542 12.5 4.25C12.5 5.35458 13.3954 6.25 14.5 6.25C15.6046 6.25 16.5 5.35458 16.5 4.25C16.5 3.14542 15.6046 2.25 14.5 2.25Z" fill="#333333"/>
<path fill-rule="evenodd" clip-rule="evenodd" d="M12.8182 5.33139C13.1168 5.79596 12.9823 6.41468 12.5178 6.71333L7.0642 10.2192C6.59963 10.5178 5.98091 10.3833 5.68226 9.91876C5.38361 9.45419 5.51811 8.83547 5.98268 8.53682L11.4362 5.03097C11.9008 4.73232 12.5195 4.86682 12.8182 5.33139Z" fill="#333333"/>
<path fill-rule="evenodd" clip-rule="evenodd" d="M5.68226 12.0812C5.98091 11.6167 6.59962 11.4822 7.06419 11.7808L12.5178 15.2866C12.9823 15.5853 13.1168 16.204 12.8182 16.6686C12.5195 17.1331 11.9008 17.2676 11.4362 16.969L5.98269 13.4632C5.51812 13.1645 5.38361 12.5458 5.68226 12.0812Z" fill="#333333"/>
</svg>
