<svg width="38" height="37" viewBox="0 0 38 37" fill="none" xmlns="http://www.w3.org/2000/svg">
<path fill-rule="evenodd" clip-rule="evenodd" d="M26.6665 0.797838C27.1781 0.501995 27.772 0.380383 28.3587 0.451389L28.3669 0.452389C30.8129 0.764964 33.061 1.95839 34.6904 3.80913C36.3197 5.65987 37.2187 8.0411 37.2188 10.507C37.2188 17.5153 34.4348 24.2364 29.4792 29.192C24.5237 34.1477 17.8024 36.9317 10.7941 36.9317C8.32827 36.9315 5.94706 36.0326 4.0963 34.4032C2.24553 32.7738 1.05215 30.5257 0.739582 28.0798L0.738521 28.0715C0.667527 27.4848 0.789166 26.8909 1.08503 26.3794C1.38047 25.8685 1.83377 25.4672 2.37694 25.2359L2.37902 25.2351L11.0449 21.5212C11.4627 21.342 11.9184 21.2701 12.3706 21.3116C12.8222 21.3532 13.2577 21.5066 13.636 21.759V21.759L18.2757 24.8529C18.3073 24.8742 18.3437 24.8868 18.3811 24.8896C18.4177 24.8924 18.4546 24.8858 18.4882 24.8704C21.3787 23.4711 23.7168 21.1436 25.1291 18.2596M25.1489 18.1531C25.1462 18.1154 25.1339 18.0791 25.1132 18.0479L25.1095 18.0422L22.03 13.3368C21.7834 12.96 21.6338 12.528 21.5946 12.0795C21.5553 11.6308 21.6276 11.1795 21.8049 10.7656L25.5223 2.09183L25.5233 2.08938C25.7545 1.54655 26.1556 1.0933 26.6665 0.797838M27.9181 2.96201C27.8757 2.9865 27.8425 3.0241 27.8233 3.06921L27.8217 3.07292L24.1028 11.7503V11.7503C24.0878 11.7854 24.0817 11.8236 24.085 11.8614C24.0884 11.8995 24.101 11.936 24.1218 11.9678V11.9678L27.1976 16.6675L27.1997 16.6707C27.4581 17.0621 27.6106 17.5134 27.6429 17.9808C27.6753 18.4501 27.5853 18.9196 27.382 19.3433L27.3779 19.3519C25.7189 22.7437 22.9695 25.4806 19.5701 27.1242L19.5612 27.1286C19.1349 27.3305 18.6633 27.4181 18.1927 27.3825C17.7232 27.347 17.2714 27.1902 16.8812 26.9278L16.8779 26.9256L12.249 23.8389C12.2175 23.818 12.1805 23.8047 12.1417 23.8011C12.1034 23.7977 12.0651 23.8038 12.0303 23.8188L3.3601 27.5345L3.3564 27.5361C3.31145 27.5552 3.27375 27.5885 3.24917 27.631C3.22505 27.6727 3.21491 27.7209 3.22016 27.7687C3.4568 29.6092 4.35544 31.3006 5.74827 32.5267C7.14259 33.7543 8.93655 34.4316 10.7942 34.4317C17.1394 34.4317 23.2247 31.9111 27.7114 27.4243C32.1982 22.9375 34.7188 16.8522 34.7188 10.507C34.7187 8.64939 34.0415 6.85544 32.814 5.4611C31.5877 4.06826 29.8963 3.16962 28.0558 2.93299C28.0081 2.92775 27.9598 2.9379 27.9181 2.96201ZM15.0592 2.73836C15.2558 3.38326 14.9055 4.06788 14.2675 4.2858L12.4802 4.8963L10.9726 5.63889L9.44103 6.65858L8.11385 7.82308L6.8659 9.25852L5.96153 10.6233L5.14483 12.2861L4.57394 13.9767C4.35796 14.6162 3.67322 14.9688 3.02717 14.7731C2.38113 14.5773 2.00721 13.904 2.18253 13.2521C2.91458 10.5302 4.34897 8.04841 6.34205 6.05532C8.33514 4.06223 10.8169 2.62783 13.5388 1.8958C14.1899 1.7207 14.8625 2.09347 15.0592 2.73836ZM16.5935 8.46182C16.7899 9.10697 16.4392 9.79163 15.8008 10.0091L14.7734 10.3591L13.8787 10.8017L13.015 11.3833L12.3011 12.013L11.6654 12.7345L11.069 13.6261L10.6491 14.4796L10.2965 15.5137C10.0788 16.1519 9.39419 16.5025 8.74913 16.306C8.10407 16.1095 7.73114 15.4368 7.90626 14.7856C8.36822 13.0679 9.2734 11.5016 10.5313 10.2438M10.5313 10.2438C11.7891 8.98602 13.3554 8.08077 15.073 7.61879C15.7243 7.44363 16.3971 7.81666 16.5935 8.46182" fill="#C5C5C5"/>
</svg>
