<svg width="20" height="20" viewBox="0 0 20 20" fill="none" xmlns="http://www.w3.org/2000/svg">
<path fill-rule="evenodd" clip-rule="evenodd" d="M14.3588 0H5.6412C2.25586 0 0 2.4199 0 5.89317V14.1068C0 17.5833 2.24992 20 5.6412 20H14.3588C17.7501 20 20 17.5833 20 14.1068V5.89317C20 2.41665 17.7501 0 14.3588 0ZM5.6412 1.39536H14.3588C16.9563 1.39536 18.6047 3.16588 18.6047 5.89318V14.1068C18.6047 16.8341 16.9563 18.6047 14.3588 18.6047H5.6412C3.04373 18.6047 1.39536 16.8341 1.39536 14.1068V5.89318C1.39536 3.1695 3.04924 1.39536 5.6412 1.39536ZM10.0004 4.88586C10.3536 4.88586 10.6455 5.20554 10.6917 5.62029L10.6981 5.73559V9.29346H14.0425C14.5115 9.29346 14.8916 9.60582 14.8916 9.99113C14.8916 10.3443 14.5722 10.6362 14.1578 10.6824L14.0425 10.6888H10.6981V14.0361C10.6981 14.5054 10.3857 14.8859 10.0004 14.8859C9.6472 14.8859 9.3553 14.5662 9.3091 14.1514L9.30273 14.0361V10.6888H5.74066C5.27174 10.6888 4.8916 10.3764 4.8916 9.99113C4.8916 9.63793 5.21102 9.34602 5.62545 9.29983L5.74066 9.29346H9.30273V5.73559C9.30273 5.2663 9.61509 4.88586 10.0004 4.88586Z" fill="#8A8A8A"/>
</svg>
