<svg width="24" height="22" viewBox="0 0 24 22" fill="none" xmlns="http://www.w3.org/2000/svg">
<path fill-rule="evenodd" clip-rule="evenodd" d="M19.3837 0.292897C19.7742 -0.0976293 20.4074 -0.0976329 20.7979 0.292889L23.5252 3.02016C23.7127 3.2077 23.8181 3.46205 23.8181 3.72727C23.8181 3.99249 23.7127 4.24684 23.5252 4.43438L20.7979 7.16166C20.4074 7.55218 19.7742 7.55218 19.3837 7.16165C18.9932 6.77113 18.9932 6.13796 19.3837 5.74744L21.4039 3.72727L19.3837 1.70711C18.9932 1.31659 18.9932 0.683424 19.3837 0.292897Z" fill="#333333"/>
<path fill-rule="evenodd" clip-rule="evenodd" d="M8.27273 4.72726C6.6091 4.72726 5.0136 5.38814 3.83724 6.56451C2.66087 7.74087 2 9.33636 2 11C2 11.5523 1.55228 12 1 12C0.447715 12 0 11.5523 0 11C0 8.80592 0.871587 6.70173 2.42302 5.15029C3.97446 3.59886 6.07866 2.72726 8.27273 2.72726H22.8182C23.3705 2.72726 23.8181 3.17498 23.8181 3.72727C23.8181 4.27955 23.3705 4.72726 22.8182 4.72726H8.27273Z" fill="#333333"/>
<path fill-rule="evenodd" clip-rule="evenodd" d="M4.43437 14.8383C4.8249 15.2288 4.8249 15.862 4.43438 16.2525L2.41421 18.2727L4.43438 20.2929C4.8249 20.6834 4.8249 21.3166 4.43437 21.7071C4.04385 22.0976 3.41068 22.0976 3.02016 21.7071L0.292889 18.9798C-0.0976298 18.5893 -0.0976298 17.9561 0.292889 17.5656L3.02016 14.8383C3.41068 14.4478 4.04385 14.4478 4.43437 14.8383Z" fill="#333333"/>
<path fill-rule="evenodd" clip-rule="evenodd" d="M22.8182 10C23.3705 10 23.8182 10.4477 23.8182 11C23.8182 13.194 22.9467 15.2983 21.3952 16.8497C19.8437 18.4011 17.7395 19.2727 15.5455 19.2727H1C0.447715 19.2727 0 18.825 0 18.2727C0 17.7204 0.447715 17.2727 1 17.2727H15.5455C17.2091 17.2727 18.8045 16.6119 19.981 15.4355C21.1573 14.2591 21.8182 12.6636 21.8182 11C21.8182 10.4477 22.2659 10 22.8182 10Z" fill="#333333"/>
</svg>
