<svg width="20" height="20" viewBox="0 0 20 20" fill="none" xmlns="http://www.w3.org/2000/svg">
<path fill-rule="evenodd" clip-rule="evenodd" d="M20 5.66588V14.3349C20 17.7385 17.5707 19.9999 14.084 19.9999H5.916C2.43296 19.9999 0 17.7318 0 14.3349V5.66588C0 2.26209 2.4295 -0.00012207 5.916 -0.00012207H14.084C17.5705 -0.00012207 20 2.26209 20 5.66588ZM18.5 14.3349V5.66588C18.5 3.11538 16.765 1.49988 14.084 1.49988H5.916C3.23496 1.49988 1.5 3.11538 1.5 5.66588V14.3349C1.5 16.8789 3.23878 18.4999 5.916 18.4999H14.084C16.7653 18.4999 18.5 16.8851 18.5 14.3349ZM14.836 9.99988C14.836 10.3796 14.5538 10.6934 14.1878 10.743L14.086 10.7499H7.73081L10.2069 13.2164C10.4737 13.4821 10.4988 13.8987 10.2816 14.1928L10.2092 14.2771C9.94346 14.5439 9.52685 14.569 9.23277 14.3518L9.1485 14.2793L5.3845 10.5313C5.11686 10.2648 5.09253 9.84671 5.31151 9.55264L5.31421 9.54953C5.33516 9.52167 5.358 9.49532 5.38255 9.47067L5.3845 9.46842L9.1485 5.72042C9.44202 5.42815 9.91689 5.42916 10.2092 5.72268C10.4749 5.98951 10.4982 6.40623 10.2797 6.69937L10.2069 6.78334L7.72942 9.24988H14.086C14.5002 9.24988 14.836 9.58566 14.836 9.99988Z" fill="#200E32"/>
</svg>
