<svg width="18" height="16" viewBox="0 0 18 16" fill="none" xmlns="http://www.w3.org/2000/svg">
<path fill-rule="evenodd" clip-rule="evenodd" d="M17.2928 8.82285C17.6922 8.76787 18 8.42047 18 8.00011C18 7.54154 17.6337 7.16979 17.1818 7.16979H2.80004L7.99528 1.91866L8.07469 1.8257C8.31301 1.50114 8.28754 1.0398 7.99767 0.744412C7.67881 0.419481 7.16077 0.418393 6.84059 0.741981L0.252234 7.40045C0.213015 7.43858 0.177529 7.48063 0.14639 7.52599C-0.0766617 7.85024 -0.0452419 8.30006 0.240643 8.58894L6.84064 15.2581L6.93257 15.3383C7.25339 15.5787 7.70787 15.551 7.99772 15.2555C8.31655 14.9306 8.31543 14.4049 7.99523 14.0813L2.79874 8.83043H17.1818L17.2928 8.82285Z" fill="#200E32"/>
</svg>
