<svg width="22" height="22" viewBox="0 0 22 22" fill="none" xmlns="http://www.w3.org/2000/svg">
<path fill-rule="evenodd" clip-rule="evenodd" d="M9.74996 2C5.46977 2 2 5.46977 2 9.74996C2 14.0301 5.46977 17.4999 9.74996 17.4999C14.0301 17.4999 17.4999 14.0301 17.4999 9.74996C17.4999 5.46977 14.0301 2 9.74996 2ZM0 9.74996C0 4.3652 4.3652 0 9.74996 0C15.1347 0 19.4999 4.3652 19.4999 9.74996C19.4999 15.1347 15.1347 19.4999 9.74996 19.4999C4.3652 19.4999 0 15.1347 0 9.74996Z" fill="#8A8A8A"/>
<path fill-rule="evenodd" clip-rule="evenodd" d="M15.2297 15.2303C15.6202 14.8398 16.2534 14.8398 16.6439 15.2303L21.7065 20.2929C22.097 20.6834 22.097 21.3166 21.7065 21.7071C21.3159 22.0976 20.6828 22.0976 20.2923 21.7071L15.2297 16.6445C14.8392 16.254 14.8392 15.6209 15.2297 15.2303Z" fill="#8A8A8A"/>
</svg>
