<svg width="28" height="24" viewBox="0 0 28 24" fill="none" xmlns="http://www.w3.org/2000/svg">
<path fill-rule="evenodd" clip-rule="evenodd" d="M17.7234 0.532945C18.6699 0.155733 19.6833 -0.024679 20.7018 0.00271079C21.7203 0.0301031 22.7225 0.264715 23.6474 0.692232L23.6474 0.692252C24.572 1.11969 25.3998 1.731 26.0805 2.48884C28.8382 5.55192 28.3562 10.2504 25.5432 13.0634L24.8361 12.3563L25.5432 13.0634L15.4142 23.1924C15.0392 23.5674 14.5305 23.7782 14 23.7782C13.4695 23.7782 12.9608 23.5674 12.5858 23.1924L2.1967 12.8033L2.19669 12.8033C1.47625 12.0828 0.910156 11.2231 0.532948 10.2766L1.46189 9.90642L0.532946 10.2766C0.155733 9.33016 -0.0246791 8.31675 0.00271081 7.29823C0.0301028 6.27974 0.264712 5.27749 0.692244 4.35264L0.692246 4.35264C1.11968 3.42801 1.73098 2.60016 2.48885 1.91954C5.55193 -0.838168 10.2504 -0.356255 13.0634 2.45676L13.0634 2.45677L14 3.39339L15.1967 2.1967L15.1967 2.19669C15.9172 1.47625 16.7769 0.910154 17.7234 0.532945ZM20.648 2.00199C19.9011 1.9819 19.1579 2.11421 18.4638 2.39083C17.7697 2.66746 17.1392 3.08261 16.6109 3.61092C16.6109 3.61092 16.6109 3.61092 16.6109 3.61093L14.7071 5.51472C14.5196 5.70225 14.2652 5.80761 14 5.80761C13.7348 5.80761 13.4804 5.70225 13.2929 5.51471L11.6492 3.87098C9.48474 1.70655 5.99465 1.45399 3.82664 3.40625L3.82558 3.4072C3.26961 3.90641 2.82118 4.51364 2.50765 5.19186L1.59995 4.77225L2.50765 5.19186C2.19412 5.87009 2.02208 6.60508 2.00199 7.352C1.9819 8.09893 2.11421 8.8421 2.39083 9.5362C2.66746 10.2303 3.0826 10.8608 3.61092 11.3891C3.61092 11.3891 3.61092 11.3891 3.61093 11.3891L14 21.7782L24.129 11.6492C26.2934 9.48474 26.546 5.99464 24.5938 3.82663L24.5929 3.82561C24.0936 3.26961 23.4864 2.82119 22.8082 2.50767C22.1299 2.19412 21.3949 2.02208 20.648 2.00199Z" fill="black"/>
</svg>
