<svg width="24" height="24" viewBox="0 0 24 24" fill="none" xmlns="http://www.w3.org/2000/svg">
<path fill-rule="evenodd" clip-rule="evenodd" d="M7.75 11.25C7.75 8.90279 9.65279 7 12 7C14.3472 7 16.25 8.90279 16.25 11.25C16.25 13.5972 14.3472 15.5 12 15.5C9.65279 15.5 7.75 13.5972 7.75 11.25ZM12 8C10.2051 8 8.75 9.45507 8.75 11.25C8.75 13.045 10.2051 14.5 12 14.5C13.795 14.5 15.25 13.045 15.25 11.25C15.25 9.45507 13.795 8 12 8Z" fill="#505050"/>
<path fill-rule="evenodd" clip-rule="evenodd" d="M3.25 4.5C3.25 3.80965 3.80965 3.25 4.5 3.25H19.5C20.1903 3.25 20.75 3.80964 20.75 4.5V19.5C20.75 20.1903 20.1903 20.75 19.5 20.75H4.5C3.80964 20.75 3.25 20.1903 3.25 19.5V4.5ZM4.5 4.25C4.36193 4.25 4.25 4.36193 4.25 4.5V19.5C4.25 19.6381 4.36194 19.75 4.5 19.75H19.5C19.6381 19.75 19.75 19.6381 19.75 19.5V4.5C19.75 4.36194 19.6381 4.25 19.5 4.25H4.5Z" fill="#505050"/>
<path fill-rule="evenodd" clip-rule="evenodd" d="M12.0008 15.5C10.5844 15.5 9.20997 15.9809 8.10262 16.8641C6.99527 17.7473 6.22062 18.9803 5.90555 20.3612C5.84413 20.6304 5.57608 20.7989 5.30686 20.7375C5.03763 20.676 4.86918 20.408 4.93061 20.1388C5.29607 18.5369 6.19463 17.1067 7.47909 16.0823L7.4791 16.0823C8.76358 15.0579 10.3578 14.5 12.0008 14.5C13.6438 14.5 15.238 15.0579 16.5225 16.0823C17.807 17.1067 18.7056 18.5369 19.071 20.1388C19.1324 20.408 18.9639 20.6761 18.6947 20.7375C18.4255 20.7989 18.1574 20.6304 18.096 20.3612C17.781 18.9803 17.0064 17.7473 15.899 16.8641L15.8989 16.8641C14.7916 15.9809 13.4172 15.5 12.0008 15.5Z" fill="#505050"/>
</svg>
