<svg width="20" height="18" viewBox="0 0 20 18" fill="none" xmlns="http://www.w3.org/2000/svg">
<path fill-rule="evenodd" clip-rule="evenodd" d="M5.3586 0.230209C5.06449 0.0111384 4.64624 0.0354796 4.37972 0.303233L0.301942 4.3999L0.229518 4.48419C0.012343 4.7783 0.0375118 5.19491 0.304393 5.46056L0.388679 5.53298C0.682793 5.75016 1.0994 5.72499 1.36505 5.45811L4.16116 2.64851V14.4507L4.16801 14.5524C4.21767 14.9185 4.53147 15.2007 4.91116 15.2007C5.32538 15.2007 5.66116 14.8649 5.66116 14.4507V2.64864L8.4575 5.45811L8.54145 5.53092C8.83455 5.74945 9.25127 5.72621 9.51815 5.46056C9.81172 5.16834 9.81282 4.69347 9.52061 4.3999L5.44283 0.303233L5.43763 0.298727C5.41474 0.276166 5.39041 0.255066 5.36479 0.235576L5.3586 0.230209ZM15.5828 3.44468C15.5331 3.0786 15.2193 2.79645 14.8396 2.79645C14.4254 2.79645 14.0896 3.13223 14.0896 3.54645V15.3481L11.2933 12.539L11.2094 12.4662C10.9163 12.2477 10.4995 12.2709 10.2327 12.5366C9.93904 12.8288 9.93795 13.3036 10.2302 13.5972L14.308 17.6939L14.3132 17.6984C14.3361 17.721 14.3604 17.7421 14.386 17.7615L14.3922 17.7669C14.6863 17.986 15.1046 17.9616 15.3711 17.6939L19.4489 13.5972L19.5213 13.5129C19.7385 13.2188 19.7133 12.8022 19.4464 12.5366C19.1528 12.2443 18.678 12.2454 18.3858 12.539L15.5896 15.3472V3.54645L15.5828 3.44468Z" fill="#200E32"/>
</svg>
