<svg width="16" height="16" viewBox="0 0 16 16" fill="none" xmlns="http://www.w3.org/2000/svg">
<path d="M12.7405 0.563498C13.4847 -0.180712 14.6913 -0.180712 15.4355 0.563498C16.112 1.24005 16.1735 2.29875 15.62 3.04479L15.4355 3.25852L3.25953 15.4345C2.51532 16.1787 1.30872 16.1787 0.564505 15.4345C-0.112049 14.7579 -0.173554 13.6992 0.37999 12.9532L0.564505 12.7395L12.7405 0.563498Z" fill="#200E32"/>
<path d="M0.558298 0.558017C1.23492 -0.118467 2.29363 -0.179862 3.03961 0.373761L3.25332 0.558298L15.4394 12.747C16.1836 13.4912 16.1834 14.6979 15.4392 15.442C14.7625 16.1185 13.7038 16.1799 12.9579 15.6262L12.7441 15.4417L0.558017 3.25304C-0.186115 2.50875 -0.18599 1.30215 0.558298 0.558017Z" fill="#200E32"/>
</svg>
