<svg width="24" height="24" viewBox="0 0 24 24" fill="none" xmlns="http://www.w3.org/2000/svg">
<path fill-rule="evenodd" clip-rule="evenodd" d="M3.25 12C3.25 7.16751 7.16751 3.25 12 3.25C16.8324 3.25 20.75 7.16751 20.75 12C20.75 16.8324 16.8324 20.75 12 20.75C7.16751 20.75 3.25 16.8324 3.25 12ZM12 4.25C7.71979 4.25 4.25 7.71979 4.25 12C4.25 16.2802 7.71979 19.75 12 19.75C16.2802 19.75 19.75 16.2802 19.75 12C19.75 7.71979 16.2802 4.25 12 4.25Z" fill="#505050"/>
<path fill-rule="evenodd" clip-rule="evenodd" d="M16.0659 7.93404C16.2611 8.12931 16.2611 8.44589 16.0659 8.64115L12.3536 12.3535C12.1583 12.5487 11.8417 12.5487 11.6464 12.3535C11.4512 12.1582 11.4512 11.8416 11.6464 11.6464L15.3587 7.93404C15.554 7.73878 15.8706 7.73878 16.0659 7.93404Z" fill="#505050"/>
<path fill-rule="evenodd" clip-rule="evenodd" d="M9.25 0.75C9.25 0.473858 9.47386 0.25 9.75 0.25H14.25C14.5261 0.25 14.75 0.473858 14.75 0.75C14.75 1.02614 14.5261 1.25 14.25 1.25H9.75C9.47386 1.25 9.25 1.02614 9.25 0.75Z" fill="#505050"/>
</svg>
