<svg width="15" height="16" viewBox="0 0 15 16" fill="none" xmlns="http://www.w3.org/2000/svg">
<path fill-rule="evenodd" clip-rule="evenodd" d="M3.75031 1C3.75031 0.585786 4.0861 0.25 4.50031 0.25H10.3336C10.7478 0.25 11.0836 0.585786 11.0836 1C11.0836 1.41421 10.7478 1.75 10.3336 1.75H4.50031C4.0861 1.75 3.75031 1.41421 3.75031 1ZM13.8333 2.58334C14.2475 2.58334 14.5833 2.91913 14.5833 3.33334C14.5833 3.74755 14.2475 4.08334 13.8333 4.08334L13.4167 4.08334V14.4167C13.4167 14.7704 13.2761 15.1096 13.0261 15.3595C12.776 15.6096 12.4369 15.75 12.0834 15.75H2.75002C2.39658 15.75 2.05739 15.6097 1.80721 15.3595C1.55717 15.1095 1.41669 14.7703 1.41669 14.4167V4.08335L1 4.08335C0.585787 4.08335 0.25 3.74756 0.25 3.33335C0.25 2.91914 0.585786 2.58335 1 2.58335L2.16295 2.58335C2.1642 2.58334 2.16544 2.58334 2.16669 2.58334C2.16794 2.58334 2.16918 2.58334 2.17042 2.58335L13.8333 2.58334ZM11.9167 4.08334L2.91669 4.08335V14.25H11.9167V4.08334ZM5.66693 6.08334C6.08114 6.08334 6.41693 6.41913 6.41693 6.83334V11.5C6.41693 11.9142 6.08114 12.25 5.66693 12.25C5.25272 12.25 4.91693 11.9142 4.91693 11.5V6.83334C4.91693 6.41913 5.25272 6.08334 5.66693 6.08334ZM9.16693 6.08334C9.58114 6.08334 9.91693 6.41913 9.91693 6.83334V11.5C9.91693 11.9142 9.58114 12.25 9.16693 12.25C8.75272 12.25 8.41693 11.9142 8.41693 11.5V6.83334C8.41693 6.41913 8.75272 6.08334 9.16693 6.08334Z" fill="black"/>
</svg>
