<svg width="18" height="16" viewBox="0 0 18 16" fill="none" xmlns="http://www.w3.org/2000/svg">
<path d="M8.4609 4.6307L8.4987 5.2535L7.8691 5.1772C5.5776 4.8849 3.5757 3.8934 1.876 2.2283L1.045 1.4021L0.83098 2.0122C0.37772 3.3723 0.6673 4.8086 1.6116 5.7747C2.1152 6.3085 2.0019 6.3848 1.1332 6.067C0.83098 5.9653 0.56658 5.8891 0.5414 5.9272C0.45326 6.0162 0.75544 7.1729 0.99466 7.6305C1.322 8.266 1.9893 8.8889 2.7196 9.2575L3.3365 9.5498L2.6063 9.5626C1.9012 9.5626 1.876 9.5753 1.9515 9.8422C2.2034 10.6684 3.198 11.5455 4.306 11.9268L5.0866 12.1937L4.4067 12.6005C3.3995 13.1852 2.216 13.5157 1.0324 13.5411C0.46585 13.5538 0 13.6047 0 13.6428C0 13.7699 1.5361 14.4817 2.43 14.7614C5.1118 15.5876 8.2972 15.2317 10.6894 13.8207C12.3892 12.8166 14.0889 10.8209 14.8821 8.8889C15.3102 7.8593 15.7383 5.978 15.7383 5.0756C15.7383 4.4909 15.7761 4.4146 16.4811 3.7155C16.8966 3.3087 17.2869 2.8638 17.3625 2.7367C17.4884 2.4952 17.4758 2.4952 16.8337 2.7113C15.7635 3.0926 15.6124 3.0418 16.1412 2.4698C16.5315 2.063 16.9973 1.3258 16.9973 1.1097C16.9973 1.0716 16.8085 1.1351 16.5944 1.2495C16.3678 1.3766 15.8642 1.5673 15.4865 1.6817L14.8066 1.8978L14.1896 1.4783C13.8497 1.2495 13.3712 0.995298 13.1194 0.919098C12.4773 0.741098 11.4952 0.766498 10.9161 0.969898C9.3422 1.5419 8.3476 3.0164 8.4609 4.6307Z" fill="white"/>
</svg>
