<svg width="22" height="20" viewBox="0 0 22 20" fill="none" xmlns="http://www.w3.org/2000/svg">
<path fill-rule="evenodd" clip-rule="evenodd" d="M4.1031 7.26112C4.1031 3.25092 7.35401 0 11.3642 0C15.3744 0 18.6253 3.25092 18.6253 7.26112C18.6253 9.74679 17.3763 11.9408 15.4716 13.2496C16.1171 13.4856 16.7434 13.7777 17.3431 14.1239C19.161 15.1732 20.6707 16.6823 21.7207 18.4998C21.997 18.978 21.8333 19.5896 21.355 19.8659C20.8768 20.1422 20.2652 19.9785 19.9889 19.5002C19.1145 17.9867 17.8572 16.7299 16.3433 15.8561L16.3433 15.8561C14.8294 14.9822 13.1122 14.5222 11.3642 14.5222C9.61628 14.5222 7.89907 14.9822 6.38512 15.8559C4.87119 16.7297 3.61386 17.9865 2.73943 19.5C2.46315 19.9783 1.85152 20.142 1.3733 19.8657C0.895089 19.5894 0.731388 18.9778 1.00767 18.4996C2.05766 16.6821 3.56745 15.1729 5.38536 14.1237L5.3854 14.1237C5.98509 13.7776 6.61135 13.4856 7.25673 13.2496C5.3521 11.9407 4.1031 9.74677 4.1031 7.26112ZM11.3642 2C8.45858 2 6.1031 4.35548 6.1031 7.26112C6.1031 10.1667 8.45858 12.5222 11.3642 12.5222C14.2698 12.5222 16.6253 10.1667 16.6253 7.26112C16.6253 4.35548 14.2698 2 11.3642 2Z" fill="#333333"/>
</svg>
