<svg width="18" height="23" viewBox="0 0 18 23" fill="none" xmlns="http://www.w3.org/2000/svg">
<path fill-rule="evenodd" clip-rule="evenodd" d="M4.7998 9C4.7998 6.68041 6.6802 4.8 8.9998 4.8C11.3194 4.8 13.1998 6.6804 13.1998 9C13.1998 11.3196 11.3194 13.2 8.9998 13.2C6.6802 13.2 4.7998 11.3196 4.7998 9ZM8.9998 6.8C7.78477 6.8 6.7998 7.78497 6.7998 9C6.7998 10.215 7.78478 11.2 8.9998 11.2C10.2148 11.2 11.1998 10.215 11.1998 9C11.1998 7.78498 10.2148 6.8 8.9998 6.8Z" fill="#333333"/>
<path fill-rule="evenodd" clip-rule="evenodd" d="M9 2C7.14349 2 5.36301 2.73749 4.05026 4.05025C2.7375 5.36301 2 7.14349 2 9C2 12.2399 3.81185 15.2096 5.75461 17.4438C6.71377 18.5469 7.6755 19.4367 8.39765 20.0506C8.62565 20.2444 8.82903 20.41 9 20.5456C9.17097 20.41 9.37435 20.2444 9.60235 20.0506C10.3245 19.4367 11.2862 18.5469 12.2454 17.4438C14.1882 15.2096 16 12.2399 16 9C16 7.1435 15.2625 5.36301 13.9498 4.05024C12.637 2.7375 10.8565 2 9 2ZM9 21.8C8.42654 22.6192 8.42596 22.6188 8.42596 22.6188L8.42314 22.6168L8.41683 22.6124L8.39569 22.5974C8.37786 22.5846 8.35265 22.5665 8.32055 22.543C8.25634 22.4962 8.16452 22.4281 8.04901 22.3398C7.8181 22.1633 7.49198 21.9056 7.10235 21.5744C6.3245 20.9133 5.28623 19.9531 4.24539 18.7562C2.18815 16.3904 0 12.9601 0 9C0 6.61306 0.948204 4.32387 2.63604 2.63605V2.63605M2.63604 2.63605C4.32387 0.948209 6.61306 0 9 0C11.3869 0 13.6762 0.948201 15.364 2.63604C17.0517 4.32385 18 6.61304 18 9C18 12.9601 15.8118 16.3904 13.7546 18.7562C12.7138 19.9531 11.6755 20.9133 10.8976 21.5744C10.508 21.9056 10.1819 22.1633 9.95099 22.3398C9.83548 22.4281 9.74366 22.4962 9.67945 22.543C9.64735 22.5665 9.62214 22.5846 9.60431 22.5974L9.58317 22.6124L9.57686 22.6168L9.5748 22.6183C9.5748 22.6183 9.57346 22.6192 9 21.8L9.57346 22.6192C9.22914 22.8603 8.77028 22.8599 8.42596 22.6188L9 21.8" fill="#333333"/>
</svg>
