<svg width="30" height="30" viewBox="0 0 30 30" fill="none" xmlns="http://www.w3.org/2000/svg">
<path fill-rule="evenodd" clip-rule="evenodd" d="M15 30C6.71573 30 0 23.2843 0 15C0 6.71573 6.71573 0 15 0C23.2843 0 30 6.71573 30 15C30 23.2843 23.2843 30 15 30ZM15.4944 23.3453C20.4122 23.3433 24.4119 19.3427 24.4138 14.4259C24.4148 12.0427 23.4879 9.80176 21.8039 8.11588C20.1199 6.42992 17.8804 5.50103 15.4943 5.5C10.578 5.5 6.57674 9.50106 6.57478 14.4189C6.57411 15.9909 6.98483 17.5253 7.76538 18.878L6.5 23.5L11.2283 22.2597C12.5311 22.9703 13.9979 23.3448 15.4907 23.3453H15.4944Z" fill="#27AE60"/>
<path fill-rule="evenodd" clip-rule="evenodd" d="M11.4474 20.6448L8.64157 21.3808L9.39049 18.6451L9.21422 18.3646C8.47212 17.1843 8.08018 15.8201 8.08075 14.4192C8.08237 10.3318 11.4081 7.00635 15.4974 7.00635C17.4775 7.00703 19.3389 7.77913 20.7386 9.18044C22.1382 10.5818 22.9086 12.4443 22.9078 14.4253C22.9062 18.513 19.5805 21.8388 15.4944 21.8388H15.4914C14.1611 21.8383 12.8564 21.4809 11.7181 20.8054L11.4474 20.6448ZM19.988 16.5468C19.9323 16.4538 19.7838 16.398 19.5609 16.2864C19.338 16.1749 18.2423 15.6358 18.038 15.5614C17.8337 15.487 17.6851 15.4499 17.5365 15.6729C17.388 15.896 16.9609 16.398 16.8309 16.5468C16.7009 16.6955 16.5708 16.7142 16.3481 16.6026C16.1252 16.491 15.4071 16.2557 14.5558 15.4964C13.8932 14.9054 13.446 14.1756 13.316 13.9525C13.186 13.7294 13.3021 13.6088 13.4137 13.4977C13.5139 13.3978 13.6366 13.2373 13.748 13.1072C13.8594 12.9771 13.8966 12.8841 13.9708 12.7354C14.0451 12.5866 14.008 12.4565 13.9523 12.345C13.8966 12.2334 13.4508 11.1364 13.2651 10.6901C13.0842 10.2556 12.9005 10.3144 12.7637 10.3076C12.6338 10.301 12.4851 10.2997 12.3365 10.2997C12.188 10.2997 11.9465 10.3555 11.7422 10.5786C11.538 10.8017 10.9622 11.3409 10.9622 12.4378C10.9622 13.5348 11.7608 14.5946 11.8722 14.7433C11.9837 14.8921 13.4438 17.1431 15.6795 18.1085C16.2112 18.3381 16.6263 18.4753 16.95 18.578C17.4839 18.7476 17.9697 18.7237 18.3537 18.6663C18.7819 18.6023 19.6723 18.1272 19.8581 17.6066C20.0437 17.0859 20.0437 16.6397 19.988 16.5468Z" fill="#27AE60"/>
</svg>
