<svg width="22" height="22" viewBox="0 0 22 22" fill="none" xmlns="http://www.w3.org/2000/svg">
<path fill-rule="evenodd" clip-rule="evenodd" d="M5.53125 9.78125C5.53125 9.22897 5.97897 8.78125 6.53125 8.78125H13.0312C13.5835 8.78125 14.0312 9.22897 14.0312 9.78125C14.0312 10.3335 13.5835 10.7812 13.0312 10.7812H6.53125C5.97897 10.7812 5.53125 10.3335 5.53125 9.78125Z" fill="#333333"/>
<path fill-rule="evenodd" clip-rule="evenodd" d="M9.78125 5.53125C10.3335 5.53125 10.7812 5.97897 10.7812 6.53125V13.0312C10.7812 13.5835 10.3335 14.0312 9.78125 14.0312C9.22897 14.0312 8.78125 13.5835 8.78125 13.0312V6.53125C8.78125 5.97897 9.22897 5.53125 9.78125 5.53125Z" fill="#333333"/>
<path fill-rule="evenodd" clip-rule="evenodd" d="M0.25 9.78076C0.25 4.5168 4.51729 0.249512 9.78125 0.249512C15.0452 0.249512 19.3125 4.51679 19.3125 9.78076C19.3125 15.0447 15.0452 19.312 9.78125 19.312C4.51728 19.312 0.25 15.0447 0.25 9.78076ZM9.78125 2.24951C5.62185 2.24951 2.25 5.62137 2.25 9.78076C2.25 13.9401 5.62186 17.312 9.78125 17.312C13.9406 17.312 17.3125 13.9401 17.3125 9.78076C17.3125 5.62137 13.9406 2.24951 9.78125 2.24951Z" fill="#333333"/>
<path fill-rule="evenodd" clip-rule="evenodd" d="M15.1064 15.1066C15.4969 14.7161 16.1301 14.7161 16.5206 15.1066L21.4566 20.0426C21.8471 20.4331 21.8471 21.0663 21.4566 21.4568C21.0661 21.8474 20.4329 21.8474 20.0424 21.4568L15.1064 16.5208C14.7158 16.1303 14.7158 15.4971 15.1064 15.1066Z" fill="#333333"/>
</svg>
