<svg width="48" height="35" viewBox="0 0 48 35" fill="none" xmlns="http://www.w3.org/2000/svg">
<path d="M11.142 30.3203C10.6242 30.3203 10.2018 29.9006 10.2018 29.3828C10.2018 28.865 10.6189 28.4453 11.1367 28.4453H11.1421C11.6598 28.4453 12.0796 28.865 12.0796 29.3828C12.0796 29.9006 11.6598 30.3203 11.142 30.3203Z" fill="#F6412D"/>
<path d="M46.5782 25.8169V17.7227C46.5782 17.6066 46.5557 17.4875 46.5131 17.3794L41.8255 5.46758C41.6844 5.10908 41.3383 4.8734 40.953 4.8734H31.9677V0.937498C31.9677 0.419718 31.5478 0 31.0302 0H19.3534C18.8357 0 18.4159 0.419718 18.4159 0.937498C18.4159 1.45528 18.8357 1.875 19.3534 1.875H30.0927V4.87349H27.4214C26.9037 4.87349 26.4839 5.29321 26.4839 5.81099V25.6215H14.9327C13.9658 24.6332 12.6227 24.0193 11.1394 24.0193C9.65604 24.0193 8.31298 24.6333 7.34605 25.6215H3.29671V12.1337H15.6469V13.6878C15.6469 14.0387 15.8428 14.36 16.1545 14.521C16.29 14.5909 16.4374 14.6253 16.5843 14.6253C16.7756 14.6253 16.9659 14.5668 17.1276 14.4519L23.2557 10.0955C23.5031 9.91958 23.65 9.63486 23.65 9.33139C23.65 9.02792 23.5031 8.7432 23.2557 8.56733L17.1276 4.21087C16.8418 4.00771 16.4663 3.98099 16.1545 4.14187C15.8428 4.30274 15.6469 4.62421 15.6469 4.97502V6.52921H3.29671V1.875H10.9347C11.4525 1.875 11.8722 1.45528 11.8722 0.937498C11.8722 0.419718 11.4525 0 10.9347 0H2.35921C1.84143 0 1.42172 0.419718 1.42172 0.937498V25.8169C0.58603 26.1817 0 27.018 0 27.9896V28.9862C0 30.2935 1.05834 31.3571 2.35921 31.3571H6.18739C6.97021 33.3401 8.89414 34.7463 11.1394 34.7463C13.3846 34.7463 15.3085 33.3401 16.0913 31.3571H30.5613C31.3441 33.3401 33.268 34.7463 35.5133 34.7463C37.7586 34.7463 39.6823 33.3401 40.4652 31.3571H45.6408C46.9417 31.3571 48 30.2935 48 28.9862V27.9896C47.9999 27.018 47.4139 26.1817 46.5782 25.8169ZM3.29671 8.4042H16.5844C17.1022 8.4042 17.5219 7.98448 17.5219 7.4667V6.79171L21.0945 9.33139L17.5219 11.8711V11.1961C17.5219 10.6783 17.1022 10.2586 16.5844 10.2586H3.29671V8.4042ZM5.81427 29.4822H2.35921C2.09671 29.4822 1.875 29.2551 1.875 28.9863V27.9897C1.875 27.7223 2.09671 27.4964 2.35921 27.4964H6.15289C5.93296 28.0836 5.81183 28.7191 5.81183 29.3829C5.81183 29.4161 5.81371 29.449 5.81427 29.4822ZM11.1394 32.8713C9.23558 32.8713 7.68683 31.3063 7.68683 29.3828C7.68683 27.4592 9.23567 25.8942 11.1394 25.8942C13.043 25.8942 14.592 27.4591 14.592 29.3828C14.592 31.3064 13.043 32.8713 11.1394 32.8713ZM44.2643 16.7852H34.7579V10.719H41.877L44.2643 16.7852ZM28.3589 6.74839H40.3144L41.1391 8.84408H33.8204C33.3027 8.84408 32.8829 9.26379 32.8829 9.78158V17.7228C32.8829 18.2406 33.3027 18.6603 33.8204 18.6603H44.7032V21.2034H43.3234C42.8057 21.2034 42.3859 21.6231 42.3859 22.1409C42.3859 22.6587 42.8057 23.0784 43.3234 23.0784H44.7032V25.6215H39.3066C38.3397 24.6332 36.9966 24.0193 35.5133 24.0193C34.03 24.0193 32.6868 24.6333 31.72 25.6215H28.3589V6.74839ZM16.4644 29.4822C16.465 29.449 16.467 29.4162 16.467 29.3828C16.467 28.7191 16.3457 28.0836 16.1259 27.4964H30.5268C30.307 28.0835 30.1858 28.719 30.1858 29.3828C30.1858 29.4161 30.1876 29.449 30.1883 29.4822H16.4644ZM35.5133 32.8713C33.6095 32.8713 32.0607 31.3063 32.0607 29.3828C32.0607 27.4592 33.6096 25.8942 35.5133 25.8942C37.417 25.8942 38.9658 27.4591 38.9658 29.3828C38.9658 31.3064 37.417 32.8713 35.5133 32.8713ZM46.1249 28.9863C46.1249 29.2551 45.9032 29.4822 45.6407 29.4822H40.8383C40.8388 29.449 40.8408 29.4162 40.8408 29.3828C40.8408 28.7191 40.7196 28.0836 40.4997 27.4964H45.6408C45.9033 27.4964 46.125 27.7222 46.125 27.9896V28.9863H46.1249Z" fill="#F6412D"/>
<path d="M35.5159 28.4453H35.5106C34.9929 28.4453 34.5757 28.865 34.5757 29.3828C34.5757 29.9006 34.9981 30.3203 35.5158 30.3203C36.0335 30.3203 36.4533 29.9006 36.4533 29.3828C36.4533 28.865 36.0336 28.4453 35.5159 28.4453Z" fill="#F6412D"/>
<path d="M6.60843 20.2549C6.09065 20.2549 5.67093 20.6746 5.67093 21.1924C5.67093 21.7102 6.09065 22.1299 6.60843 22.1299H11.2164C11.7342 22.1299 12.1539 21.7102 12.1539 21.1924C12.1539 20.6746 11.7342 20.2549 11.2164 20.2549H6.60843Z" fill="#F6412D"/>
<path d="M14.9655 17.3984C14.9655 16.8807 14.5458 16.4609 14.028 16.4609H6.60843C6.09065 16.4609 5.67093 16.8807 5.67093 17.3984C5.67093 17.9162 6.09065 18.3359 6.60843 18.3359H14.028C14.5458 18.3359 14.9655 17.9162 14.9655 17.3984Z" fill="#F6412D"/>
<path d="M15.1441 1.875H15.1467C15.6645 1.875 16.0829 1.45528 16.0829 0.937498C16.0829 0.419718 15.6619 0 15.1441 0C14.6263 0 14.2066 0.419718 14.2066 0.937498C14.2066 1.45528 14.6263 1.875 15.1441 1.875Z" fill="#F6412D"/>
</svg>
