<svg width="48" height="47" viewBox="0 0 48 47" fill="none" xmlns="http://www.w3.org/2000/svg">
<path d="M5.75281 27.5122H6.50225C7.02003 27.5122 7.43975 27.0924 7.43975 26.5747C7.43975 26.057 7.02003 25.6372 6.50225 25.6372H5.75281C5.23503 25.6372 4.81531 26.057 4.81531 26.5747C4.81531 27.0924 5.23503 27.5122 5.75281 27.5122Z" fill="#F6412D"/>
<path d="M15.9413 27.5122C16.4591 27.5122 16.8788 27.0924 16.8788 26.5747C16.8788 26.057 16.4591 25.6372 15.9413 25.6372H10.2545C9.73667 25.6372 9.31696 26.057 9.31696 26.5747C9.31696 27.0924 9.73667 27.5122 10.2545 27.5122H15.9413Z" fill="#F6412D"/>
<path d="M5.75281 31.9619H15.9414C16.4591 31.9619 16.8789 31.5421 16.8789 31.0244C16.8789 30.5067 16.4591 30.0869 15.9414 30.0869H5.75281C5.23503 30.0869 4.81531 30.5067 4.81531 31.0244C4.81531 31.5421 5.23503 31.9619 5.75281 31.9619Z" fill="#F6412D"/>
<path d="M36.8175 18.7733V3.04959C36.8175 1.368 35.448 0 33.7647 0H3.05016C1.36828 0 0 1.36809 0 3.04959V14.1944C0 14.7121 0.419719 15.1319 0.9375 15.1319C1.45528 15.1319 1.875 14.7121 1.875 14.1944V3.04959C1.875 2.40188 2.40216 1.875 3.05016 1.875H11.7458V14.035C11.7458 14.3748 11.9297 14.688 12.2263 14.8536C12.5229 15.0191 12.886 15.0114 13.1752 14.833L18.4074 11.6082L23.6396 14.833C24.2541 15.2118 25.069 14.7533 25.069 14.0349V1.875H33.7647C34.4141 1.875 34.9425 2.40188 34.9425 3.04959V18.4993C34.5766 18.4709 34.2068 18.4561 33.8338 18.4561C26.0226 18.4561 19.6676 24.8094 19.6676 32.6186C19.6676 33.4067 19.7334 34.1796 19.8578 34.9329H3.05016C2.40216 34.9329 1.875 34.4048 1.875 33.7557V22.6109C1.875 22.0932 1.45528 21.6734 0.9375 21.6734C0.419719 21.6734 0 22.0932 0 22.6109V33.7558C0 35.4388 1.36828 36.808 3.05016 36.808H20.3003C22.0912 42.5784 27.4808 46.7812 33.8338 46.7812C41.6451 46.7812 48 40.4279 48 32.6187C48 25.8325 43.2007 20.1468 36.8175 18.7733ZM23.194 12.356L18.8993 9.70894C18.5977 9.52312 18.2171 9.52312 17.9155 9.70894L13.6208 12.356V1.875H23.194V12.356ZM33.8338 44.9062C27.0564 44.9062 21.5426 39.394 21.5426 32.6187C21.5426 25.8434 27.0564 20.3312 33.8338 20.3312C40.6112 20.3312 46.125 25.8433 46.125 32.6187C46.125 39.3941 40.6112 44.9062 33.8338 44.9062Z" fill="#F6412D"/>
<path d="M35.5372 27.1889H31.956L33.6275 25.5193C33.9937 25.1534 33.9941 24.5598 33.6282 24.1934C33.2623 23.827 32.6688 23.8268 32.3023 24.1927L29.0284 27.463C28.667 27.8212 28.667 28.4315 29.0284 28.7896L32.3023 32.0601C32.4854 32.2429 32.7251 32.3343 32.9648 32.3343C33.2049 32.3343 33.445 32.2426 33.6281 32.0593C33.994 31.693 33.9937 31.0994 33.6275 30.7334L31.956 29.0637H35.5373C37.8059 29.0637 39.6515 30.9088 39.6515 33.1766C39.6515 35.4459 37.8059 37.2921 35.5373 37.2921H27.0787C26.561 37.2921 26.1412 37.712 26.1412 38.2296C26.1412 38.7473 26.561 39.1671 27.0787 39.1671H35.5373C38.8399 39.1671 41.5265 36.4798 41.5265 33.1766C41.5265 29.875 38.8398 27.1889 35.5372 27.1889Z" fill="#F6412D"/>
<path d="M0.9375 19.343C1.45528 19.343 1.875 18.9205 1.875 18.4028C1.875 17.8851 1.45528 17.4653 0.9375 17.4653C0.419719 17.4653 0 17.8851 0 18.4028V18.4082C0 18.9259 0.419719 19.343 0.9375 19.343Z" fill="#F6412D"/>
</svg>
