<svg width="48" height="49" viewBox="0 0 48 49" fill="none" xmlns="http://www.w3.org/2000/svg">
<path d="M34.5172 0C28.7993 0 23.6857 3.62278 21.7925 9.01491C21.6209 9.50344 21.878 10.0385 22.3665 10.21C22.8551 10.3819 23.3902 10.1245 23.5617 9.63609C25.1916 4.99397 29.5942 1.875 34.5172 1.875C40.9177 1.875 46.125 7.08225 46.125 13.4828C46.125 17.2378 44.2941 20.7791 41.2273 22.9558C40.9796 23.1316 40.8324 23.4166 40.8324 23.7203V24.9248L40.2191 24.3114C39.9458 24.0381 39.533 23.9605 39.1792 24.116C38.4157 24.4512 37.6187 24.7012 36.8022 24.8646C36.0238 23.3516 34.4474 22.3137 32.6321 22.3137H26.9855C25.4221 20.9791 24.2394 19.2605 23.5615 17.3294C23.39 16.8409 22.8549 16.5837 22.3664 16.7554C21.8779 16.9269 21.6209 17.462 21.7924 17.9505C22.3559 19.5557 23.2191 21.0345 24.329 22.3137H4.6875C2.10281 22.3137 0 24.4165 0 27.0012V39.3762C0 41.9609 2.10281 44.0637 4.6875 44.0637H7.53141V47.0637C7.53141 47.4352 7.75069 47.7716 8.09053 47.9214C8.21213 47.9751 8.34084 48.0012 8.46872 48.0012C8.69831 48.0012 8.92481 47.9169 9.10106 47.7561L13.145 44.0637H32.6322C35.2169 44.0637 37.3197 41.9609 37.3197 39.3762V27.0012C37.3197 26.8913 37.3146 26.7828 37.3071 26.6748C37.9973 26.5293 38.6754 26.3308 39.3345 26.0785L41.107 27.8511C41.2865 28.0304 41.5262 28.1257 41.7701 28.1257C41.8909 28.1257 42.0127 28.1022 42.1287 28.0542C42.4791 27.9091 42.7074 27.5673 42.7074 27.1881V24.1937C46.0304 21.6482 48 17.6806 48 13.4829C48 6.04837 41.9516 0 34.5172 0V0ZM35.4447 39.376C35.4447 40.9268 34.183 42.1885 32.6322 42.1885H12.7813C12.5474 42.1885 12.3219 42.276 12.1492 42.4337L9.40641 44.938V43.126C9.40641 42.6082 8.98669 42.1885 8.46891 42.1885H4.6875C3.13669 42.1885 1.875 40.9268 1.875 39.376V27.001C1.875 25.4502 3.13669 24.1885 4.6875 24.1885H32.6321C34.1829 24.1885 35.4446 25.4502 35.4446 27.001V39.376H35.4447Z" fill="#F6412D"/>
<path d="M37.5737 7.33025C37.1076 7.10403 36.5469 7.29828 36.3208 7.76403L31.1623 18.3864C30.9361 18.8521 31.1303 19.4131 31.5961 19.6392C31.7281 19.7033 31.8676 19.7337 32.0049 19.7337C32.3526 19.7337 32.6868 19.5393 32.8489 19.2055L38.0074 8.58313C38.2336 8.11738 38.0393 7.55647 37.5737 7.33025Z" fill="#F6412D"/>
<path d="M30.0255 5.9248C28.371 5.9248 27.0249 7.27077 27.0249 8.92527C27.0249 10.5798 28.371 11.9257 30.0255 11.9257C31.68 11.9257 33.0259 10.5798 33.0259 8.92527C33.0259 7.27077 31.68 5.9248 30.0255 5.9248ZM30.0255 10.0507C29.4048 10.0507 28.8999 9.5458 28.8999 8.92527C28.8999 8.30474 29.4048 7.7998 30.0255 7.7998C30.6461 7.7998 31.1509 8.30474 31.1509 8.92527C31.1509 9.5458 30.646 10.0507 30.0255 10.0507Z" fill="#F6412D"/>
<path d="M36.1743 18.0748C36.1743 19.7293 37.5203 21.0753 39.1748 21.0753C40.8293 21.0753 42.1753 19.7293 42.1753 18.0748C42.1753 16.4203 40.8293 15.0742 39.1748 15.0742C37.5203 15.0742 36.1743 16.4203 36.1743 18.0748ZM39.1748 16.9492C39.7954 16.9492 40.3003 17.4542 40.3003 18.0748C40.3003 18.6954 39.7953 19.2003 39.1748 19.2003C38.5543 19.2003 38.0493 18.6953 38.0493 18.0748C38.0493 17.4542 38.5542 16.9492 39.1748 16.9492Z" fill="#F6412D"/>
<path d="M17.0336 29.0306C17.0303 29.022 17.027 29.0135 17.0236 29.0051C16.8508 28.5849 16.4458 28.3135 15.9915 28.3135C15.9911 28.3135 15.9907 28.3135 15.9905 28.3135C15.5358 28.3139 15.1307 28.5861 14.9585 29.0069C14.9556 29.014 14.9528 29.0211 14.9501 29.0282L11.993 36.7923C11.8087 37.2762 12.0516 37.8178 12.5355 38.0021C12.6453 38.0439 12.758 38.0638 12.869 38.0638C13.2468 38.0638 13.6028 37.8337 13.7452 37.4596L14.2517 36.1298H17.7086L18.2094 37.4569C18.3922 37.9413 18.933 38.1856 19.4176 38.003C19.902 37.8202 20.1465 37.2793 19.9637 36.7948L17.0336 29.0306ZM14.966 34.2548L15.9882 31.5706L17.0012 34.2548H14.966Z" fill="#F6412D"/>
<path d="M25.5944 36.1818C25.5927 36.1818 25.5909 36.1818 25.5891 36.1818C24.9631 36.1854 24.2917 36.1878 23.7743 36.1884V29.251C23.7743 28.7332 23.3546 28.3135 22.8368 28.3135C22.319 28.3135 21.8993 28.7332 21.8993 29.251V37.1193C21.8993 37.576 22.2283 37.9662 22.6784 38.0433C22.7464 38.055 22.7988 38.064 23.66 38.064C24.0811 38.064 24.6957 38.0619 25.5996 38.0568C26.1174 38.0539 26.5348 37.6318 26.5319 37.1141C26.5289 36.5981 26.1098 36.1818 25.5944 36.1818Z" fill="#F6412D"/>
<path d="M32.6321 30.2241C33.1499 30.2241 33.5697 29.8044 33.5697 29.2866C33.5697 28.7688 33.1499 28.3491 32.6321 28.3491H29.3442C28.8265 28.3491 28.4067 28.7688 28.4067 29.2866V37.0897C28.4067 37.6075 28.8265 38.0272 29.3442 38.0272H32.6321C33.1499 38.0272 33.5697 37.6075 33.5697 37.0897C33.5697 36.5719 33.1499 36.1522 32.6321 36.1522H30.2817V34.1256H32.3897C32.9075 34.1256 33.3272 33.7059 33.3272 33.1881C33.3272 32.6703 32.9075 32.2506 32.3897 32.2506H30.2817V30.224H32.6321V30.2241Z" fill="#F6412D"/>
<path d="M8.44223 32.3709C7.46714 32.0113 6.55983 31.6194 6.28973 31.501C6.05161 31.3138 6.05939 31.0507 6.07505 30.9415C6.09633 30.7936 6.20301 30.4324 6.7343 30.2724C7.86942 29.9305 8.91642 30.7593 8.94464 30.782C9.34101 31.1109 9.92902 31.0585 10.261 30.6638C10.5942 30.2674 10.5429 29.676 10.1466 29.3429C10.073 29.281 8.32111 27.8362 6.19355 28.477C5.12405 28.7993 4.36748 29.6414 4.21908 30.6751C4.08005 31.6438 4.47661 32.6646 5.3798 33.1423C5.42348 33.1655 5.3347 33.1222 5.3798 33.1423C5.42526 33.1627 6.57342 33.6802 7.7933 34.1302C8.14964 34.2616 8.96648 34.6343 8.85577 35.2545C8.77373 35.7136 8.21948 36.1885 7.43395 36.1885C6.6382 36.1885 5.87198 35.8673 5.38439 35.3291C5.03676 34.9455 4.44389 34.9163 4.06017 35.264C3.67655 35.6116 3.6473 36.2045 3.99501 36.5882C4.83211 37.512 6.1177 38.0635 7.43395 38.0635C9.07083 38.0635 10.445 37.0208 10.7015 35.5841C10.8944 34.5047 10.402 33.0938 8.44223 32.3709Z" fill="#F6412D"/>
<path d="M21.9722 14.4219C22.2188 14.4219 22.4606 14.3216 22.635 14.1472C22.8094 13.9728 22.9097 13.731 22.9097 13.4844C22.9097 13.2378 22.8094 12.9959 22.635 12.8216C22.4606 12.6472 22.2188 12.5469 21.9722 12.5469C21.7247 12.5469 21.4837 12.6472 21.3084 12.8216C21.134 12.9959 21.0347 13.2378 21.0347 13.4844C21.0347 13.7319 21.134 13.9728 21.3084 14.1472C21.4837 14.3216 21.7247 14.4219 21.9722 14.4219Z" fill="#F6412D"/>
</svg>
