<svg width="48" height="42" viewBox="0 0 48 42" fill="none" xmlns="http://www.w3.org/2000/svg">
<path d="M39.9498 25.7917C39.9852 25.2055 39.9911 24.5957 39.9658 23.9616C39.8297 20.5751 38.4257 17.3599 36.9393 13.9557C36.6837 13.3703 36.4233 12.772 36.1649 12.1647H36.337C37.4005 12.1647 38.2658 11.2995 38.2658 10.236V5.82459C38.2658 4.76109 37.4005 3.89587 36.337 3.89587H29.7122C27.755 3.89587 26.1122 5.26341 25.6863 7.09284H22.4733C21.9556 7.09284 21.5358 7.51256 21.5358 8.03034C21.5358 8.54812 21.9556 8.96784 22.4733 8.96784H25.6863C26.0307 10.4472 27.1708 11.6239 28.6298 12.0201L30.6497 21.0264C31.2881 23.8678 30.1782 25.5471 29.1347 26.4555C27.5167 27.8638 24.9607 28.3118 22.9184 27.5449C21.1471 26.8796 20.0212 25.4139 19.7482 23.4178L19.6706 22.8507H20.4643C20.982 22.8507 21.4018 22.431 21.4018 21.9132V19.3222C21.4018 17.8784 20.4435 16.6546 19.1297 16.2525V0.9375C19.1297 0.419719 18.7099 0 18.1922 0H2.08012C1.56244 0 1.14262 0.419719 1.14262 0.9375V4.78294C1.14262 5.30072 1.56244 5.72044 2.08012 5.72044C2.59781 5.72044 3.01762 5.30072 3.01762 4.78294V1.875H6.32194V7.51744C6.32194 7.85719 6.50578 8.17041 6.80241 8.33597C7.09912 8.50162 7.46212 8.49375 7.75144 8.31544L10.1348 6.84619L12.5182 8.31544C12.6687 8.40834 12.8393 8.45494 13.0102 8.45494C13.1675 8.45494 13.3249 8.41537 13.4672 8.33597C13.7638 8.17031 13.9477 7.85719 13.9477 7.51744V1.875H17.2546V16.1124H3.01762V13.2019C3.01762 12.6841 2.59781 12.2644 2.08012 12.2644C1.56244 12.2644 1.14262 12.6841 1.14262 13.2019V17.0499V21.6108C0.3945 22.696 0 23.9557 0 25.2748V32.6573C0 34.1766 1.23478 35.4126 2.7525 35.4126H4.99566C5.454 38.7257 8.30287 41.2856 11.74 41.2856C15.1785 41.2856 18.0284 38.7257 18.487 35.4126H32.5479C33.0063 38.7257 35.8552 41.2856 39.2922 41.2856C42.7307 41.2856 45.5806 38.7257 46.0392 35.4126H47.0625C47.5802 35.4126 48 34.9928 48 34.4751C48 29.8947 44.4453 26.1291 39.9498 25.7917ZM12.0727 5.83809L10.6268 4.94681C10.3251 4.76081 9.94462 4.76091 9.64284 4.94681L8.19694 5.83819V1.875H12.0727V5.83809ZM34.2261 5.77087H36.3371C36.3642 5.77087 36.3908 5.7975 36.3908 5.82459V10.2361C36.3908 10.2632 36.3642 10.2898 36.3371 10.2898H34.2263C33.6285 8.80106 33.6284 7.25784 34.2261 5.77087ZM29.5155 10.2807C29.4991 10.2788 29.4826 10.2772 29.466 10.2761C28.3583 10.1556 27.4892 9.23128 27.4545 8.10028C27.4562 8.07712 27.4581 8.05397 27.4581 8.03034C27.4581 8.00672 27.4562 7.98356 27.4545 7.96041C27.4916 6.74681 28.4898 5.77087 29.7122 5.77087H32.2376C31.781 7.26591 31.7811 8.79375 32.238 10.2898H29.7122C29.6458 10.2898 29.5804 10.2863 29.5155 10.2807ZM3.01762 17.9873H18.1922C18.9281 17.9873 19.5268 18.586 19.5268 19.322V20.9755H3.01762V17.9873ZM11.74 39.4106C9.33919 39.4106 7.33434 37.6871 6.89503 35.4126H16.5877C16.1481 37.6871 14.1421 39.4106 11.74 39.4106ZM4.97569 33.5376C5.43403 30.2121 8.29181 27.642 11.74 27.642C15.1895 27.642 18.0484 30.212 18.5069 33.5376H4.97569ZM29.7228 33.5376H20.3972C19.9281 29.1752 16.2248 25.767 11.74 25.767C7.25653 25.767 3.55434 29.1752 3.08541 33.5376H2.75259C2.26875 33.5376 1.87509 33.1427 1.87509 32.6573V25.2748C1.87509 24.4102 2.115 23.5807 2.57119 22.8506H17.7782L17.8905 23.6719C18.2559 26.3432 19.8483 28.3945 22.2593 29.3001C23.1483 29.634 24.0973 29.7957 25.0477 29.7957C26.9842 29.7957 28.9248 29.124 30.3658 27.8697C32.3848 26.1122 33.1354 23.5358 32.4793 20.6157L30.584 12.1648H34.1311C34.4929 13.0358 34.8618 13.8832 35.2211 14.7061C36.6964 18.0847 37.9704 21.0025 38.0924 24.0366C38.2198 27.2312 37.494 29.6737 35.9348 31.2962C34.5057 32.7834 32.4157 33.5376 29.7228 33.5376ZM39.2921 39.4106C36.8913 39.4106 34.8864 37.6871 34.4471 35.4126H44.1398C43.7002 37.6871 41.6943 39.4106 39.2921 39.4106ZM36.2062 33.5376C36.5947 33.2543 36.9555 32.94 37.2867 32.5953C38.5204 31.3115 39.3329 29.6578 39.7192 27.6568C42.9753 27.8588 45.6216 30.3503 46.0609 33.5375H36.2062V33.5376Z" fill="#F6412D"/>
<path d="M2.08008 9.93231C2.59777 9.93231 3.01758 9.50997 3.01758 8.99219C3.01758 8.47441 2.59777 8.05469 2.08008 8.05469C1.56239 8.05469 1.14258 8.47441 1.14258 8.99219V8.99753C1.14258 9.51531 1.56239 9.93231 2.08008 9.93231Z" fill="#F6412D"/>
</svg>
