<svg width="184" height="72" viewBox="0 0 184 72" fill="none" xmlns="http://www.w3.org/2000/svg">
<path d="M101.3 18.038L103.092 29.574C106.462 24.0967 110.617 19.1438 115.426 14.874C125.534 6.726 137.49 3.408 151.294 4.92C164.79 6.11 174.716 14.216 183.494 24.52C181.016 20.3562 177.935 16.582 174.352 13.32C173.498 12.55 172.644 11.836 171.762 11.15C163.6 4.332 153.394 0.510001 140.094 1.014C125.1 2.148 117.134 6.516 108.944 13.81C108.034 9.61 108.216 7.986 109.98 3.926C95.168 10.268 88.98 18.458 85.62 27.264C89.9291 22.8437 95.3433 19.658 101.3 18.038V18.038Z" fill="#EF4041"/>
<path d="M67.182 43.882V43.21H60.406V57.014H53.546V33.676H46.784V56.832H28.85V50.014H29.62C32.56 50.014 35.514 50.014 38.454 50.014C39.014 50.014 39.084 49.72 39.476 48.964C40.372 47.27 41.436 45.716 42.136 44.162C42.304 43.784 42.514 43.574 42.654 43.238H19.134C18.8567 43.2416 18.5917 43.3534 18.3955 43.5495C18.1994 43.7457 18.0876 44.0106 18.084 44.288C18.084 44.6259 18.2182 44.9499 18.4571 45.1888C18.6961 45.4278 19.0201 45.562 19.358 45.562H21.276C21.5953 45.562 21.9016 45.6888 22.1274 45.9146C22.3531 46.1404 22.48 46.4467 22.48 46.766C22.48 47.063 22.362 47.3479 22.152 47.558C21.9419 47.768 21.657 47.886 21.36 47.886H7.5C7.21781 47.886 6.94718 47.9981 6.74764 48.1976C6.5481 48.3972 6.436 48.6678 6.436 48.95C6.436 49.2322 6.5481 49.5028 6.74764 49.7024C6.94718 49.9019 7.21781 50.014 7.5 50.014H15.172C15.4666 50.014 15.7494 50.13 15.9591 50.3371C16.1687 50.5441 16.2883 50.8254 16.292 51.12V51.274C16.292 51.5562 16.1799 51.8268 15.9804 52.0264C15.7808 52.2259 15.5102 52.338 15.228 52.338H9.628C9.47908 52.338 9.33162 52.3673 9.19404 52.4243C9.05645 52.4813 8.93144 52.5648 8.82614 52.6701C8.72084 52.7754 8.63731 52.9004 8.58032 53.038C8.52333 53.1756 8.494 53.3231 8.494 53.472C8.494 53.7876 8.61937 54.0903 8.84254 54.3135C9.06571 54.5366 9.36839 54.662 9.684 54.662H17.468C17.7613 54.662 18.0426 54.7785 18.2501 54.9859C18.4575 55.1933 18.574 55.4747 18.574 55.768C18.574 56.091 18.4457 56.4008 18.2173 56.6292C17.9888 56.8577 17.679 56.986 17.356 56.986H1.676C1.52223 56.9841 1.36962 57.0128 1.22702 57.0704C1.08442 57.128 0.954666 57.2133 0.845277 57.3213C0.735888 57.4294 0.649041 57.5582 0.589772 57.7001C0.530502 57.842 0.499989 57.9942 0.5 58.148V58.148C0.503684 58.45 0.626258 58.7384 0.841151 58.9507C1.05605 59.163 1.34594 59.282 1.648 59.282H11.35C11.6285 59.282 11.8955 59.3926 12.0925 59.5895C12.2894 59.7864 12.4 60.0535 12.4 60.332C12.4 60.6105 12.2894 60.8775 12.0925 61.0745C11.8955 61.2714 11.6285 61.382 11.35 61.382L7.5 61.536C7.21772 61.5469 6.95064 61.6667 6.75485 61.8703C6.55906 62.0739 6.44979 62.3455 6.45 62.628C6.44999 62.7616 6.47652 62.8938 6.52805 63.017C6.57958 63.1402 6.65508 63.252 6.75017 63.3458C6.84526 63.4395 6.95804 63.5135 7.08195 63.5633C7.20587 63.6131 7.33845 63.6378 7.472 63.636H31.034C41.254 63.636 51.474 63.636 61.708 63.636C61.9814 63.6318 62.2535 63.599 62.52 63.538C63.8721 63.1866 65.0668 62.3909 65.9123 61.2789C66.7578 60.1668 67.2049 58.8028 67.182 57.406V43.882Z" fill="#EF4041"/>
<path d="M160.716 31.296V37.554L161.276 37.036C163.222 35.09 165.182 33.158 167.114 31.198C167.239 31.0678 167.389 30.9646 167.555 30.8947C167.721 30.8249 167.9 30.7899 168.08 30.792H179.392C179.602 29.868 179.812 29.028 179.994 28.188L180.876 23.988L166.316 24.142C162.9 24.17 160.716 27.726 160.716 31.296Z" fill="#EF4041"/>
<path d="M64.578 65.722H49.626V71.014H64.578V65.722Z" fill="#EF4041"/>
<path d="M120.592 33.69H113.76V57.014H106.9V33.69H99.9V57.168H93.25V43.294H86.418V57.14H79.628V43.532H72.88V44.26C72.88 48.46 72.88 52.534 72.88 56.664C72.8624 57.0018 72.7289 57.3232 72.502 57.574C70.556 59.576 68.568 61.536 66.594 63.524C66.468 63.65 66.342 63.804 66.146 64.028H72.586C74.1397 64.0433 75.6544 63.5412 76.8913 62.6008C78.1283 61.6604 79.0172 60.3352 79.418 58.834L79.586 58.176H79.712V64.014H80.468C91.346 64.014 102.224 64.014 113.102 64.014C114.393 64.0116 115.668 63.7298 116.84 63.188C117.994 62.7361 118.978 61.9342 119.654 60.8947C120.329 59.8552 120.662 58.6304 120.606 57.392L120.592 33.69Z" fill="#EF4041"/>
<path d="M154.878 43.896V43.21H148.088V57.014H141.242V33.676H134.48V56.076C134.482 56.6099 134.52 57.143 134.592 57.672C134.798 59.4088 135.646 61.0057 136.97 62.1483C138.294 63.291 139.998 63.8966 141.746 63.846H148.214C148.576 63.8488 148.937 63.8159 149.292 63.748C150.897 63.5388 152.365 62.7326 153.403 61.4898C154.441 60.2471 154.972 58.6591 154.892 57.042C154.822 52.674 154.878 48.292 154.878 43.896Z" fill="#EF4041"/>
<path d="M130.546 33.662H123.854V64.014H125.73C126.696 64.0257 127.64 63.7236 128.42 63.1531C129.2 62.5826 129.774 61.7744 130.056 60.85C130.356 59.8219 130.512 58.757 130.518 57.686C130.518 49.902 130.518 42.118 130.518 34.32C130.546 34.11 130.546 33.9 130.546 33.662Z" fill="#EF4041"/>
<path d="M176.704 33.676H169.984V64.014H171.86C172.813 64.0189 173.744 63.7204 174.516 63.1617C175.289 62.603 175.864 61.813 176.158 60.906C176.488 59.8635 176.667 58.7792 176.69 57.686C176.69 49.706 176.69 41.712 176.69 33.704L176.704 33.676Z" fill="#EF4041"/>
<path d="M167.45 44.19V43.504H160.674V44.26C160.674 48.334 160.674 52.408 160.674 56.482C160.674 56.7082 160.63 56.9321 160.543 57.1411C160.457 57.3501 160.33 57.54 160.17 57.7C158.238 59.604 156.334 61.536 154.416 63.468C154.276 63.608 154.136 63.776 153.94 64H161.164C161.302 63.9855 161.438 63.9573 161.57 63.916C163.271 63.6163 164.806 62.7113 165.892 61.3681C166.978 60.0249 167.541 58.3341 167.478 56.608C167.408 52.45 167.45 48.32 167.45 44.19Z" fill="#EF4041"/>
<path d="M89.568 33.55H74.728V39.276H89.568V33.55Z" fill="#EF4041"/>
<path d="M154.864 33.69H142.95V39.402H154.864V33.69Z" fill="#EF4041"/>
</svg>
