<svg width="64" height="64" viewBox="0 0 64 64" fill="none" xmlns="http://www.w3.org/2000/svg">
<path d="M32 20V32" stroke="#F6412D" stroke-width="3" stroke-linecap="round" stroke-linejoin="round"/>
<path d="M42.3923 38L32 32" stroke="#F6412D" stroke-width="3" stroke-linecap="round" stroke-linejoin="round"/>
<path d="M17.957 24.929H7.95703V14.929" stroke="#F6412D" stroke-width="3" stroke-linecap="round" stroke-linejoin="round"/>
<path d="M16.4423 47.5564C19.5191 50.6331 23.4391 52.7284 27.7067 53.5773C31.9743 54.4262 36.3977 53.9905 40.4177 52.3254C44.4377 50.6602 47.8736 47.8404 50.291 44.2226C52.7084 40.6047 53.9987 36.3512 53.9987 32C53.9987 27.6488 52.7084 23.3953 50.291 19.7775C47.8736 16.1596 44.4377 13.3398 40.4177 11.6747C36.3977 10.0095 31.9743 9.57386 27.7067 10.4227C23.4391 11.2716 19.5191 13.3669 16.4423 16.4437L7.95703 24.9289" stroke="#F6412D" stroke-width="3" stroke-linecap="round" stroke-linejoin="round"/>
</svg>
