<svg width="26" height="25" viewBox="0 0 26 25" fill="none" xmlns="http://www.w3.org/2000/svg">
<path d="M24 8.00002H2C1.44771 8.00002 1 8.44774 1 9.00002V13C1 13.5523 1.44771 14 2 14H24C24.5523 14 25 13.5523 25 13V9.00002C25 8.44774 24.5523 8.00002 24 8.00002Z" stroke="#333333" stroke-width="2" stroke-linecap="round" stroke-linejoin="round"/>
<path d="M23 14V23C23 23.2652 22.8946 23.5196 22.7071 23.7071C22.5196 23.8947 22.2652 24 22 24H4C3.73478 24 3.48043 23.8947 3.29289 23.7071C3.10536 23.5196 3 23.2652 3 23V14" stroke="#333333" stroke-width="2" stroke-linecap="round" stroke-linejoin="round"/>
<path d="M13 8.00002V24" stroke="#333333" stroke-width="2" stroke-linecap="round" stroke-linejoin="round"/>
<path d="M18.6569 6.58581C17.2426 8.00002 13 8.00002 13 8.00002C13 8.00002 13 3.75738 14.4142 2.34317C14.9769 1.78109 15.7398 1.46547 16.5352 1.4657C17.3305 1.46592 18.0932 1.78198 18.6556 2.34438C19.218 2.90678 19.5341 3.66949 19.5343 4.46484C19.5346 5.2602 19.2189 6.02309 18.6569 6.58581V6.58581Z" stroke="#333333" stroke-width="2" stroke-linecap="round" stroke-linejoin="round"/>
<path d="M7.34329 6.58581C8.75751 8.00002 13.0001 8.00002 13.0001 8.00002C13.0001 8.00002 13.0001 3.75738 11.5859 2.34317C11.0232 1.78109 10.2603 1.46547 9.46497 1.4657C8.66961 1.46592 7.9069 1.78198 7.3445 2.34438C6.7821 2.90678 6.46605 3.66949 6.46582 4.46484C6.46559 5.2602 6.78121 6.02309 7.34329 6.58581V6.58581Z" stroke="#333333" stroke-width="2" stroke-linecap="round" stroke-linejoin="round"/>
</svg>
