<svg width="64" height="64" viewBox="0 0 64 64" fill="none" xmlns="http://www.w3.org/2000/svg">
<path d="M60.1794 30.4462L54 33.5359L46 18.2154L52.2423 15.0942C52.7113 14.8597 53.2536 14.8188 53.7525 14.9802C54.2514 15.1416 54.6669 15.4925 54.9096 15.9573L61.0578 27.7316C61.1808 27.967 61.2556 28.2246 61.2779 28.4892C61.3002 28.7539 61.2696 29.0204 61.1878 29.2731C61.1061 29.5258 60.9748 29.7596 60.8016 29.9611C60.6285 30.1625 60.417 30.3274 60.1794 30.4462V30.4462Z" stroke="#F6412D" stroke-width="3" stroke-linecap="round" stroke-linejoin="round"/>
<path d="M9.99983 33.2679L3.82042 30.1782C3.58285 30.0594 3.37133 29.8945 3.19819 29.6931C3.02505 29.4917 2.89376 29.2578 2.81199 29.0051C2.73022 28.7524 2.6996 28.486 2.72192 28.2213C2.74424 27.9566 2.81905 27.6991 2.94199 27.4636L9.09022 15.6894C9.33292 15.2246 9.74845 14.8737 10.2473 14.7123C10.7462 14.5508 11.2885 14.5918 11.7575 14.8263L17.9998 17.9474L9.99983 33.2679Z" stroke="#F6412D" stroke-width="3" stroke-linecap="round" stroke-linejoin="round"/>
<path d="M54 33.5359L50 38.2154L40.8007 47.4147C40.5565 47.6589 40.2532 47.8357 39.9204 47.9279C39.5875 48.0201 39.2365 48.0245 38.9014 47.9407L24.4122 44.3184C24.1404 44.2505 23.886 44.1262 23.6653 43.9537L10 33.2679" stroke="#F6412D" stroke-width="3" stroke-linecap="round" stroke-linejoin="round"/>
<path d="M49.9982 38.2154L38.9982 30.2154L35.7982 32.6154C34.4134 33.654 32.7291 34.2154 30.9982 34.2154C29.2672 34.2154 27.5829 33.654 26.1982 32.6154L24.843 31.599C24.6137 31.4271 24.4241 31.2079 24.287 30.9563C24.1498 30.7047 24.0683 30.4266 24.048 30.1408C24.0277 29.855 24.069 29.5681 24.1692 29.2997C24.2694 29.0312 24.4261 28.7874 24.6288 28.5848L34.4124 18.8012C34.5981 18.6155 34.8186 18.4681 35.0612 18.3676C35.3039 18.2671 35.5639 18.2154 35.8266 18.2154H45.9982" stroke="#F6412D" stroke-width="3" stroke-linecap="round" stroke-linejoin="round"/>
<path d="M18.1445 17.9474L30.9745 14.2071C31.4328 14.0735 31.9238 14.1082 32.3588 14.305L41.0009 18.2154" stroke="#F6412D" stroke-width="3" stroke-linecap="round" stroke-linejoin="round"/>
<path d="M28 53.2154L20.4651 51.3317C20.1594 51.2552 19.876 51.1076 19.6381 50.9008L14 46" stroke="#F6412D" stroke-width="3" stroke-linecap="round" stroke-linejoin="round"/>
</svg>
