<svg width="26" height="22" viewBox="0 0 26 22" fill="none" xmlns="http://www.w3.org/2000/svg">
<path d="M10 8.99999H5" stroke="#333333" stroke-width="2" stroke-linecap="round" stroke-linejoin="round"/>
<path d="M10 13H5" stroke="#333333" stroke-width="2" stroke-linecap="round" stroke-linejoin="round"/>
<path d="M17.4873 13C15.8305 13 14.4873 11.6568 14.4873 9.99999C14.4873 8.34314 15.8305 6.99999 17.4873 6.99999C19.1442 6.99999 20.4873 8.34314 20.4873 9.99999C20.4873 11.6568 19.1442 13 17.4873 13Z" stroke="#333333" stroke-width="2" stroke-linecap="round" stroke-linejoin="round"/>
<path d="M21.3613 15.9999C21.1394 15.1413 20.6385 14.3807 19.9373 13.8377C19.2361 13.2947 18.3744 13 17.4875 13C16.6006 13 15.7389 13.2946 15.0377 13.8375C14.3364 14.3805 13.8355 15.141 13.6135 15.9997" stroke="#333333" stroke-width="2" stroke-linecap="round" stroke-linejoin="round"/>
<path d="M2 1H24C24.5523 1 25 1.44772 25 2V20C25 20.5523 24.5523 21 24 21H2C1.44772 21 1 20.5523 1 20V2C1 1.44772 1.44772 1 2 1Z" stroke="#333333" stroke-width="2" stroke-linecap="round" stroke-linejoin="round"/>
</svg>
