<svg width="455" height="50" viewBox="0 0 455 50" fill="none" xmlns="http://www.w3.org/2000/svg">
    <path d="M0 0H50.1205V12.8916H13.012V31.5663H0V0Z" fill="#777"/>
    <path d="M50.1205 18.6747V31.5662H31.6867V50H0V37.2289H18.6747V18.6747H50.1205Z" fill="#777"/>
    <rect x="37.5903" y="37.3494" width="12.5301" height="12.5301" fill="#29E7D6"/>
    <rect x="446.125" y="33.7157" width="8.28429" height="8.28429" fill="#29E7D6"/>
    <path d="M128.49 42H163.49V7H128.49V42ZM136.569 15.0789H155.411V33.9211H136.569V15.0789Z" fill="#777"/>
    <path d="M196.55 7V33.9211H177.708V7H169.629V42H204.629V7H196.55Z" fill="#777"/>
    <path d="M267.366 7V28.5268H294.287V33.9211H267.366V42H302.366V20.4479H275.444V15.0789H302.366V7H267.366Z" fill="#777"/>
    <path d="M308.504 42H316.583V7H308.504V42Z" fill="#777"/>
    <path d="M330.826 33.9211H349.669V15.0789H330.826V33.9211ZM322.748 42V7H351.011C352.868 7 354.455 7.65847 355.772 8.9754C357.089 10.2923 357.748 11.8794 357.748 13.7366V35.2634C357.748 37.1206 357.089 38.7077 355.772 40.0246C354.455 41.3415 352.868 42 351.011 42H322.748Z" fill="#777"/>
    <path d="M405.025 7V28.5268H431.947V33.9211H405.025V42H440.025V20.4479H413.104V15.0789H440.025V7H405.025Z" fill="#777"/>
    <path fill-rule="evenodd" clip-rule="evenodd" d="M363.887 42V7H398.887V15.0789H371.965V20.4479V28.5268V33.9211H398.887V42H363.887ZM377.329 28.5268H398.887V20.4479H377.329V28.5268Z" fill="#777"/>
    <path fill-rule="evenodd" clip-rule="evenodd" d="M237.689 15.0789H218.847H210.768V7H245.768V19.1056C245.768 21.4863 244.974 23.5714 243.387 25.3611C244.974 27.5053 245.768 29.9112 245.768 32.5789V42H237.689V32.5789C237.689 31.4645 237.292 30.5106 236.499 29.7171C235.722 28.9235 234.777 28.5268 233.662 28.5268H218.847V42H210.768V20.4479H218.847H236.347C236.718 20.4479 237.039 20.3213 237.309 20.068C237.562 19.7979 237.689 19.4771 237.689 19.1056V15.0789Z" fill="#777"/>
    <path fill-rule="evenodd" clip-rule="evenodd" d="M87.3511 15.0789V7H122.351V15.0789H95.4299H87.3511ZM87.3511 20.4479V42H95.4299V28.5268H122.351V20.4479H95.4299H87.3511Z" fill="#777"/>
</svg>