<svg width="26" height="26" viewBox="0 0 26 26" fill="none" xmlns="http://www.w3.org/2000/svg">
<path d="M13 25C19.6274 25 25 19.6274 25 13C25 6.37258 19.6274 1 13 1C6.37258 1 1 6.37258 1 13C1 19.6274 6.37258 25 13 25Z" stroke="#8A8A8A" stroke-width="2" stroke-linecap="round" stroke-linejoin="round"/>
<path d="M13 16V15C13.7911 15 14.5645 14.7654 15.2223 14.3259C15.8801 13.8864 16.3928 13.2616 16.6955 12.5307C16.9983 11.7998 17.0775 10.9956 16.9231 10.2196C16.7688 9.44372 16.3878 8.73098 15.8284 8.17157C15.269 7.61216 14.5563 7.2312 13.7804 7.07686C13.0044 6.92252 12.2002 7.00173 11.4693 7.30448C10.7384 7.60723 10.1136 8.11993 9.67412 8.77772C9.2346 9.43552 9 10.2089 9 11" stroke="#8A8A8A" stroke-width="2" stroke-linecap="round" stroke-linejoin="round"/>
<path d="M13 21.5C13.8284 21.5 14.5 20.8284 14.5 20C14.5 19.1716 13.8284 18.5 13 18.5C12.1716 18.5 11.5 19.1716 11.5 20C11.5 20.8284 12.1716 21.5 13 21.5Z" fill="#8A8A8A"/>
</svg>
