<svg width="64" height="64" viewBox="0 0 64 64" fill="none" xmlns="http://www.w3.org/2000/svg">
<path d="M48 46H17.1237C16.6553 46 16.2018 45.8356 15.8422 45.5355C15.4826 45.2354 15.2397 44.8186 15.1559 44.3578L8.4804 7.64223C8.39662 7.18141 8.15376 6.76461 7.79416 6.4645C7.43456 6.16439 6.98104 6 6.51266 6H2" stroke="#F6412D" stroke-width="3" stroke-linecap="round" stroke-linejoin="round"/>
<path d="M18 56C20.7614 56 23 53.7614 23 51C23 48.2386 20.7614 46 18 46C15.2386 46 13 48.2386 13 51C13 53.7614 15.2386 56 18 56Z" stroke="#F6412D" stroke-width="3" stroke-linecap="round" stroke-linejoin="round"/>
<path d="M48 56C50.7614 56 53 53.7614 53 51C53 48.2386 50.7614 46 48 46C45.2386 46 43 48.2386 43 51C43 53.7614 45.2386 56 48 56Z" stroke="#F6412D" stroke-width="3" stroke-linecap="round" stroke-linejoin="round"/>
<path d="M10 16H53.6036C53.8965 16 54.1859 16.0644 54.4512 16.1885C54.7166 16.3127 54.9514 16.4936 55.1391 16.7185C55.3268 16.9434 55.4628 17.2068 55.5375 17.4901C55.6122 17.7733 55.6237 18.0696 55.5713 18.3578L52.2986 36.3578C52.2148 36.8186 51.9719 37.2354 51.6124 37.5355C51.2528 37.8356 50.7992 38 50.3308 38H14" stroke="#F6412D" stroke-width="3" stroke-linecap="round" stroke-linejoin="round"/>
</svg>
