<svg width="64" height="64" viewBox="0 0 64 64" fill="none" xmlns="http://www.w3.org/2000/svg">
<path d="M32 56C45.2548 56 56 45.2548 56 32C56 18.7452 45.2548 8 32 8C18.7452 8 8 18.7452 8 32C8 45.2548 18.7452 56 32 56Z" stroke="#F6412D" stroke-width="3" stroke-linecap="round" stroke-linejoin="round"/>
<path d="M42.3945 37.9991C41.3402 39.8226 39.8248 41.3367 38.0003 42.3894C36.1758 43.442 34.1064 43.9962 32.0001 43.9962C29.8937 43.9962 27.8243 43.4421 25.9998 42.3895C24.1753 41.3369 22.6598 39.8228 21.6055 37.9993" stroke="#F6412D" stroke-width="3" stroke-linecap="round" stroke-linejoin="round"/>
<path d="M23 30C24.6569 30 26 28.6569 26 27C26 25.3431 24.6569 24 23 24C21.3431 24 20 25.3431 20 27C20 28.6569 21.3431 30 23 30Z" fill="#F6412D"/>
<path d="M41 30C42.6569 30 44 28.6569 44 27C44 25.3431 42.6569 24 41 24C39.3431 24 38 25.3431 38 27C38 28.6569 39.3431 30 41 30Z" fill="#F6412D"/>
</svg>
