<svg width="64" height="64" viewBox="0 0 64 64" fill="none" xmlns="http://www.w3.org/2000/svg">
<path d="M22 40C29.1797 40 35 34.1797 35 27C35 19.8203 29.1797 14 22 14C14.8203 14 9 19.8203 9 27C9 34.1797 14.8203 40 22 40Z" stroke="#F6412D" stroke-width="3" stroke-miterlimit="10"/>
<path d="M38.8516 14.4842C40.6396 13.9805 42.5149 13.8657 44.351 14.1477C46.1871 14.4297 47.9415 15.1018 49.496 16.1189C51.0505 17.136 52.369 18.4745 53.3626 20.044C54.3563 21.6136 55.0021 23.3779 55.2565 25.2181C55.5108 27.0582 55.368 28.9315 54.8374 30.7118C54.3068 32.4921 53.4009 34.138 52.1807 35.5387C50.9604 36.9394 49.4542 38.0624 47.7634 38.8319C46.0727 39.6015 44.2366 39.9998 42.379 40" stroke="#F6412D" stroke-width="3" stroke-linecap="round" stroke-linejoin="round"/>
<path d="M4 49.3492C6.03033 46.4612 8.72573 44.1041 11.8586 42.4769C14.9915 40.8497 18.4699 40.0001 22.0002 40C25.5305 39.9999 29.009 40.8491 32.142 42.4761C35.275 44.1031 37.9706 46.46 40.0011 49.3478" stroke="#F6412D" stroke-width="3" stroke-linecap="round" stroke-linejoin="round"/>
<path d="M42.3789 40C45.9095 39.9975 49.3887 40.8457 52.522 42.4728C55.6553 44.1 58.3503 46.4582 60.379 49.3478" stroke="#F6412D" stroke-width="3" stroke-linecap="round" stroke-linejoin="round"/>
</svg>
